<svg width="426" height="189" viewBox="0 0 426 189" fill="none" xmlns="http://www.w3.org/2000/svg">
<g clip-path="url(#clip0_69_26)">
<g filter="url(#filter0_d_69_26)">
<path d="M181.174 120.745H8.76638C6.44219 120.743 4.21395 119.818 2.5705 118.174C0.927045 116.53 0.00260874 114.301 0 111.977V6.67776C0.00195901 4.90735 0.705907 3.21001 1.95741 1.95812C3.20891 0.706227 4.90575 0.00202113 6.67567 0H183.166C184.962 0.00202364 186.684 0.716664 187.954 1.98713C189.224 3.25759 189.939 4.98012 189.941 6.77681V111.977C189.938 114.301 189.014 116.53 187.37 118.174C185.727 119.818 183.498 120.743 181.174 120.745Z" fill="url(#paint0_linear_69_26)"/>
</g>
<path d="M164.309 75.5522H101.76C100.754 75.5522 99.79 75.1527 99.0791 74.4416C98.3681 73.7305 97.9688 72.766 97.9688 71.7603C97.9688 70.7546 98.3681 69.7901 99.0791 69.079C99.79 68.3679 100.754 67.9684 101.76 67.9684H164.309C165.314 67.9684 166.279 68.3679 166.989 69.079C167.7 69.7901 168.1 70.7546 168.1 71.7603C168.1 72.766 167.7 73.7305 166.989 74.4416C166.279 75.1527 165.314 75.5522 164.309 75.5522Z" fill="#E6E6E6"/>
<path d="M135.877 59.4365H101.76C100.754 59.4365 99.79 59.037 99.0791 58.3259C98.3681 57.6148 97.9688 56.6503 97.9688 55.6446C97.9688 54.6389 98.3681 53.6744 99.0791 52.9633C99.79 52.2522 100.754 51.8527 101.76 51.8527H135.877C136.883 51.8527 137.847 52.2522 138.558 52.9633C139.269 53.6744 139.668 54.6389 139.668 55.6446C139.668 56.6503 139.269 57.6148 138.558 58.3259C137.847 59.037 136.883 59.4365 135.877 59.4365Z" fill="#E6E6E6"/>
<path d="M69.9169 58.8061C69.9169 67.183 62.1733 65.916 52.621 65.916C43.0688 65.916 35.3252 67.183 35.3252 58.8061C35.3252 50.4292 39.1077 35.5806 52.621 35.5806C66.5998 35.5806 69.9169 50.4292 69.9169 58.8061Z" fill="#2F2E41"/>
<path d="M70.6163 72.9043C70.2827 71.9412 69.6176 71.1281 68.7398 70.6102C68.5704 70.5062 68.3929 70.4158 68.209 70.34C67.4392 70.0199 66.5929 69.931 65.7734 70.0842C64.9539 70.2374 64.1968 70.6261 63.5946 71.2028C62.9924 71.7796 62.5712 72.5193 62.3826 73.3316C62.1939 74.1439 62.2459 74.9935 62.5322 75.7767L69.4221 91.4421H78.4965L70.6163 72.9043Z" fill="#3F3D56"/>
<path d="M40.55 73.7576C40.0054 73.4944 39.4113 73.3493 38.8068 73.3319C38.2022 73.3144 37.6007 73.425 37.0419 73.6564C36.483 73.8878 35.9794 74.2348 35.564 74.6745C35.1486 75.1143 34.8309 75.6369 34.6316 76.2081L28.2156 91.3047C28.5441 91.3965 28.8837 91.4427 29.2248 91.4422H37.2758L42.7155 79.0805C43.0783 78.0826 43.0577 76.9855 42.6575 76.0019C42.2574 75.0184 41.5063 74.2186 40.55 73.7576Z" fill="#3F3D56"/>
<path d="M52.5633 65.902C58.991 65.902 64.2017 60.6899 64.2017 54.2603C64.2017 47.8308 58.991 42.6187 52.5633 42.6187C46.1355 42.6187 40.9248 47.8308 40.9248 54.2603C40.9248 60.6899 46.1355 65.902 52.5633 65.902Z" fill="#FFB8B8"/>
<path d="M68.9435 70.7951C68.8773 70.7334 68.8109 70.6671 68.7399 70.6102C67.9286 69.8785 66.9683 69.3314 65.9253 69.0065C64.8823 68.6817 63.7813 68.5868 62.6982 68.7285L41.2512 71.4444C39.2866 71.6875 37.4939 72.6867 36.2536 74.23C35.0133 75.7733 34.4229 77.7393 34.6077 79.7108C34.9016 83.0193 35.3754 87.1951 36.1337 91.4421H70.0145L71.2607 76.9569C71.361 75.8218 71.2048 74.6786 70.8037 73.612C70.4026 72.5454 69.7668 71.5827 68.9435 70.7951Z" fill="#3F3D56"/>
<path d="M39.116 53.1182H43.7192L45.75 47.4303L46.1561 53.1182H48.3562L49.5409 49.8003L49.7778 53.1182H66.1259C66.1259 49.8497 64.8279 46.7151 62.5174 44.404C60.2069 42.0928 57.0731 40.7944 53.8056 40.7944H51.4363C48.1687 40.7944 45.035 42.0928 42.7245 44.404C40.414 46.7151 39.116 49.8497 39.116 53.1182Z" fill="#2F2E41"/>
<g filter="url(#filter1_d_69_26)">
<path d="M235.631 111.977V6.77681C235.633 4.98012 236.347 3.25759 237.617 1.98713C238.887 0.716664 240.609 0.00202364 242.406 0H418.896C420.666 0.00202113 422.363 0.706227 423.614 1.95812C424.866 3.21001 425.57 4.90735 425.572 6.67776V111.977C425.569 114.301 424.645 116.53 423.001 118.174C421.358 119.818 419.129 120.743 416.805 120.745H244.397C242.073 120.743 239.845 119.818 238.201 118.174C236.558 116.53 235.633 114.301 235.631 111.977Z" fill="url(#paint1_linear_69_26)"/>
</g>
<path d="M257.472 71.7603C257.473 70.755 257.873 69.7912 258.583 69.0803C259.294 68.3694 260.257 67.9695 261.263 67.9684H323.812C324.817 67.9684 325.781 68.3679 326.492 69.079C327.203 69.7901 327.603 70.7546 327.603 71.7603C327.603 72.766 327.203 73.7305 326.492 74.4416C325.781 75.1527 324.817 75.5522 323.812 75.5522H261.263C260.257 75.5511 259.294 75.1512 258.583 74.4403C257.873 73.7295 257.473 72.7656 257.472 71.7603Z" fill="#E6E6E6"/>
<path d="M257.472 55.6446C257.473 54.6393 257.873 53.6754 258.583 52.9646C259.294 52.2537 260.258 51.8538 261.263 51.8527H295.38C296.386 51.8527 297.35 52.2522 298.061 52.9633C298.772 53.6744 299.171 54.6389 299.171 55.6446C299.171 56.6503 298.772 57.6148 298.061 58.3259C297.35 59.037 296.386 59.4365 295.38 59.4365H261.263C260.257 59.4354 259.294 59.0355 258.583 58.3246C257.873 57.6137 257.473 56.6499 257.472 55.6446Z" fill="#E6E6E6"/>
<path d="M359.921 48.8096C363.244 55.3429 365.862 62.0813 373.19 62.0813C376.708 62.0813 380.083 60.6831 382.571 58.1941C385.06 55.7052 386.458 52.3295 386.458 48.8096C386.458 45.2897 385.06 41.914 382.571 39.4251C380.083 36.9361 376.708 35.5379 373.19 35.5379C365.742 35.4446 353.738 36.6492 359.921 48.8096Z" fill="#2F2E41"/>
<path d="M372.536 62.3398C378.964 62.3398 384.175 57.1276 384.175 50.6981C384.175 44.2686 378.964 39.0564 372.536 39.0564C366.109 39.0564 360.898 44.2686 360.898 50.6981C360.898 57.1276 366.109 62.3398 372.536 62.3398Z" fill="#A0616A"/>
<path d="M388.426 71.9185C387.676 71.1009 386.859 70.3463 385.986 69.6623C382.165 66.6673 377.377 65.1826 372.533 65.4912C372.339 65.5006 372.144 65.5149 371.95 65.5338C369.144 65.7581 366.419 66.5775 363.955 67.9375C361.491 69.2974 359.344 71.1667 357.658 73.421C355.947 75.7097 354.743 78.3378 354.128 81.1293C353.514 83.9209 353.503 86.8115 354.095 89.6078C354.223 90.2003 354.337 90.7975 354.446 91.3948H393.027L393.472 88.4086C393.918 85.4574 393.696 82.4439 392.822 79.59C391.949 76.7361 390.447 74.1146 388.426 71.9185Z" fill="#3F3D56"/>
<path d="M394.335 75.0327C394.063 73.4751 393.253 72.0623 392.047 71.0403C390.841 70.0183 389.315 69.4519 387.734 69.4396C387.673 69.4396 387.606 69.4443 387.545 69.4443C387.018 69.4564 386.495 69.5295 385.986 69.6623C385.129 69.89 384.326 70.2846 383.623 70.8235C382.919 71.3624 382.329 72.0349 381.886 72.8026C381.443 73.5702 381.156 74.4178 381.042 75.2967C380.927 76.1755 380.987 77.0684 381.219 77.924L384.863 91.3948H397.126L394.335 75.0327Z" fill="#3F3D56"/>
<path d="M367.349 71.5015C366.886 70.5934 366.224 69.8024 365.411 69.1884C364.835 68.7536 364.191 68.4172 363.506 68.193C363.226 68.0972 362.939 68.0212 362.648 67.9655C361.063 67.6655 359.423 67.942 358.024 68.7451C356.625 69.5482 355.559 70.825 355.019 72.3452L348.347 91.3948H361.009L367.467 77.3837C367.898 76.4592 368.111 75.4485 368.09 74.4288C368.07 73.4092 367.816 72.4078 367.349 71.5015Z" fill="#3F3D56"/>
<path d="M360.186 44.1188C362.846 45.9524 366.002 46.9282 369.232 46.9153C368.08 47.7144 366.768 48.2542 365.388 48.4975C369.682 49.419 374.121 49.4439 378.425 48.5708C379.382 48.4173 380.305 48.1001 381.155 47.6331C381.578 47.3967 381.947 47.0739 382.237 46.6856C382.527 46.2973 382.732 45.8523 382.839 45.3794C383.125 43.7449 381.852 42.2598 380.529 41.259C378.503 39.75 376.167 38.7104 373.69 38.2153C371.213 37.7202 368.657 37.782 366.207 38.3962C364.607 38.8099 363.004 39.5088 361.965 40.794C360.926 42.0792 360.618 44.0605 361.608 45.3839L360.186 44.1188Z" fill="#2F2E41"/>
<g filter="url(#filter2_d_69_26)">
<path d="M298.99 181H126.582C124.258 180.997 122.029 180.073 120.386 178.429C118.742 176.785 117.818 174.556 117.815 172.231V66.9324C117.817 65.162 118.521 63.4646 119.773 62.2128C121.024 60.9609 122.721 60.2567 124.491 60.2546H300.981C302.777 60.2567 304.5 60.9713 305.77 62.2418C307.04 63.5122 307.754 65.2348 307.756 67.0315V172.231C307.753 174.556 306.829 176.785 305.186 178.429C303.542 180.073 301.314 180.997 298.99 181Z" fill="url(#paint2_linear_69_26)"/>
</g>
<path d="M294.909 139.584H260.791C259.785 139.584 258.821 139.184 258.11 138.473C257.399 137.762 257 136.798 257 135.792C257 134.786 257.399 133.822 258.11 133.111C258.821 132.4 259.785 132 260.791 132H294.909C295.914 132 296.878 132.4 297.589 133.111C298.3 133.822 298.7 134.786 298.7 135.792C298.7 136.798 298.3 137.762 297.589 138.473C296.878 139.184 295.914 139.584 294.909 139.584Z" fill="#6C63FF"/>
<path d="M271.999 155.384C268.688 155.39 265.515 156.71 263.176 159.054C260.837 161.398 259.523 164.574 259.523 167.886C259.523 171.198 260.837 174.375 263.176 176.719C265.515 179.063 268.688 180.383 271.999 180.389H271.999C275.31 180.383 278.484 179.063 280.823 176.719C283.162 174.375 284.476 171.198 284.476 167.886C284.476 164.574 283.162 161.398 280.823 159.054C278.484 156.71 275.31 155.39 271.999 155.384Z" fill="#6C63FF"/>
<path d="M270.813 173.079C270.484 173.079 270.164 172.973 269.901 172.776L269.884 172.763L266.447 170.133C266.126 169.886 265.916 169.522 265.864 169.121C265.811 168.719 265.92 168.313 266.166 167.992C266.412 167.671 266.776 167.46 267.177 167.407C267.578 167.354 267.984 167.462 268.306 167.708L270.532 169.416L275.793 162.55C275.915 162.391 276.068 162.257 276.241 162.157C276.415 162.056 276.607 161.991 276.805 161.965C277.004 161.939 277.206 161.952 277.4 162.004C277.594 162.056 277.775 162.145 277.934 162.267L277.935 162.267L277.902 162.313L277.936 162.267C278.257 162.514 278.467 162.878 278.52 163.28C278.573 163.681 278.464 164.088 278.218 164.409L272.03 172.481C271.887 172.667 271.702 172.818 271.492 172.921C271.281 173.024 271.049 173.078 270.815 173.077L270.813 173.079Z" fill="white"/>
<path d="M169.814 143.289L162.229 135.785C161.86 135.417 161.422 135.126 160.94 134.927C160.458 134.729 159.942 134.628 159.421 134.63H159.394C158.869 134.632 158.35 134.738 157.866 134.942C157.382 135.146 156.944 135.444 156.576 135.819C154.88 137.539 153.915 139.85 153.885 142.268C153.854 144.686 154.76 147.021 156.413 148.783C156.493 148.87 156.576 148.953 156.659 149.037C157.12 149.496 157.63 149.905 158.178 150.255C159.678 151.226 161.426 151.74 163.212 151.734H163.268C164.494 151.73 165.706 151.482 166.835 151.005C167.965 150.529 168.988 149.832 169.847 148.957C170.592 148.2 171.006 147.178 171 146.116C170.994 145.053 170.567 144.037 169.814 143.289V143.289ZM169.374 148.486C167.966 149.908 166.112 150.799 164.124 151.011C162.136 151.222 160.136 150.741 158.461 149.648C157.982 149.33 157.535 148.967 157.125 148.563C155.491 146.945 154.565 144.744 154.55 142.442C154.536 140.14 155.435 137.927 157.049 136.289C157.356 135.976 157.722 135.727 158.125 135.557C158.529 135.387 158.963 135.299 159.401 135.298H159.421C159.854 135.296 160.284 135.381 160.685 135.546C161.087 135.71 161.452 135.953 161.759 136.259L169.344 143.766C169.972 144.389 170.328 145.235 170.334 146.12C170.339 147.005 169.994 147.856 169.374 148.486V148.486Z" fill="#3F3D56"/>
<path d="M144.927 118.662L137.341 111.155C136.595 110.413 135.585 109.997 134.533 110H134.51C133.984 110.002 133.465 110.109 132.98 110.313C132.496 110.518 132.057 110.816 131.688 111.192C130.286 112.618 129.377 114.458 129.094 116.44C128.811 118.422 129.169 120.443 130.116 122.207L130.119 122.21C130.51 122.931 130.995 123.597 131.562 124.189C131.625 124.263 131.698 124.336 131.772 124.41C133.514 126.142 135.87 127.112 138.324 127.107H138.384C139.61 127.102 140.822 126.853 141.951 126.376C143.081 125.899 144.104 125.202 144.963 124.326C145.332 123.952 145.624 123.509 145.821 123.021C146.019 122.534 146.119 122.012 146.116 121.486C146.112 120.96 146.006 120.44 145.802 119.956C145.598 119.471 145.3 119.031 144.927 118.662V118.662ZM144.487 123.859C143.69 124.672 142.739 125.318 141.691 125.761C140.643 126.204 139.518 126.434 138.381 126.439H138.324C136.616 126.439 134.946 125.932 133.525 124.983C132.103 124.034 130.994 122.685 130.335 121.105C129.677 119.526 129.499 117.787 129.825 116.107C130.15 114.426 130.965 112.88 132.165 111.662C132.786 111.033 133.631 110.677 134.514 110.671C135.397 110.665 136.246 111.011 136.875 111.632L144.46 119.136C145.088 119.759 145.443 120.607 145.448 121.492C145.453 122.377 145.107 123.229 144.487 123.859L144.487 123.859Z" fill="#3F3D56"/>
<path d="M170.299 145.648L161.936 137.372C161.388 136.831 160.647 136.529 159.878 136.534C159.108 136.539 158.371 136.849 157.83 137.398C157.152 138.083 156.616 138.896 156.252 139.79C155.889 140.683 155.704 141.64 155.71 142.605C155.715 143.57 155.91 144.525 156.284 145.414C156.658 146.303 157.203 147.11 157.888 147.788C158.573 148.466 159.385 149.003 160.278 149.366C161.17 149.73 162.125 149.913 163.088 149.907C164.051 149.9 165.003 149.704 165.89 149.328C166.777 148.953 167.582 148.405 168.258 147.718L170.299 145.648Z" fill="#6C63FF"/>
<path d="M145.413 121.02L137.05 112.744C136.502 112.202 135.762 111.901 134.992 111.906C134.222 111.911 133.486 112.221 132.944 112.769C132.266 113.455 131.73 114.268 131.367 115.162C131.003 116.055 130.818 117.012 130.824 117.977C130.829 118.942 131.024 119.896 131.398 120.786C131.772 121.675 132.317 122.482 133.003 123.16C133.688 123.838 134.5 124.374 135.392 124.738C136.284 125.101 137.239 125.285 138.202 125.279C139.165 125.272 140.117 125.076 141.005 124.7C141.892 124.324 142.696 123.777 143.372 123.09L145.413 121.02Z" fill="#6C63FF"/>
<path d="M161.11 150.803L160.91 151.33C159.971 150.973 159.06 150.615 158.178 150.255C142.562 143.87 135.106 136.396 130.12 122.21L130.116 122.207C129.88 121.539 129.65 120.856 129.427 120.157L129.953 119.987C130.129 120.659 130.386 121.307 130.719 121.916C130.992 122.694 131.273 123.452 131.562 124.189C136.249 136.163 143.161 143.005 156.413 148.783C157.079 149.074 157.762 149.362 158.461 149.648C159.274 150.178 160.169 150.568 161.11 150.803V150.803Z" fill="#3F3D56"/>
<path d="M137.203 126.499L136.734 126.974L154.036 144.097L154.504 143.622L137.203 126.499Z" fill="#3F3D56"/>
<path d="M159.931 123H156.981V125.917H155.198V123H152.248V121.334H155.198V118.417H156.981V121.334H159.931V123ZM169.933 126.167V128H161.334V126.55L165.967 122.15C166.489 121.65 166.839 121.217 167.017 120.851C167.206 120.473 167.3 120.101 167.3 119.734C167.3 119.19 167.117 118.773 166.75 118.484C166.383 118.195 165.845 118.051 165.134 118.051C163.945 118.051 163.034 118.456 162.4 119.267L160.884 118.101C161.339 117.49 161.95 117.017 162.717 116.684C163.495 116.34 164.361 116.168 165.317 116.168C166.583 116.168 167.594 116.468 168.35 117.067C169.105 117.667 169.483 118.484 169.483 119.517C169.483 120.151 169.35 120.745 169.083 121.3C168.817 121.856 168.306 122.489 167.55 123.2L164.434 126.167H169.933ZM176.15 121.151C177.228 121.284 178.05 121.65 178.616 122.25C179.183 122.85 179.466 123.6 179.466 124.5C179.466 125.178 179.294 125.795 178.95 126.35C178.605 126.906 178.083 127.35 177.383 127.683C176.694 128.006 175.85 128.167 174.85 128.167C174.017 128.167 173.211 128.05 172.434 127.817C171.667 127.572 171.011 127.239 170.467 126.817L171.4 125.134C171.822 125.489 172.334 125.772 172.933 125.983C173.545 126.183 174.172 126.283 174.817 126.283C175.583 126.283 176.183 126.128 176.617 125.817C177.061 125.495 177.283 125.061 177.283 124.517C177.283 123.973 177.072 123.55 176.65 123.25C176.239 122.939 175.605 122.784 174.75 122.784H173.683V121.3L176.333 118.151H171.034V116.334H178.983V117.784L176.15 121.151ZM191.283 125.35H189.216V128H187.116V125.35H180.717V123.85L186.466 116.334H188.783L183.367 123.517H187.183V121.167H189.216V123.517H191.283V125.35ZM204.366 121.867C204.977 122.145 205.444 122.523 205.766 123C206.1 123.467 206.266 124.017 206.266 124.65C206.266 125.361 206.066 125.983 205.666 126.517C205.277 127.05 204.722 127.461 204 127.75C203.278 128.028 202.439 128.167 201.483 128.167C200.528 128.167 199.689 128.028 198.967 127.75C198.256 127.461 197.706 127.05 197.317 126.517C196.928 125.983 196.734 125.361 196.734 124.65C196.734 124.017 196.895 123.467 197.217 123C197.539 122.523 198 122.145 198.6 121.867C198.133 121.612 197.772 121.278 197.517 120.867C197.272 120.445 197.15 119.962 197.15 119.417C197.15 118.762 197.328 118.19 197.683 117.701C198.05 117.212 198.561 116.834 199.217 116.568C199.872 116.301 200.628 116.168 201.483 116.168C202.35 116.168 203.111 116.301 203.766 116.568C204.422 116.834 204.933 117.212 205.3 117.701C205.666 118.19 205.85 118.762 205.85 119.417C205.85 119.962 205.722 120.439 205.466 120.851C205.211 121.262 204.844 121.6 204.366 121.867ZM201.483 117.867C200.805 117.867 200.267 118.012 199.867 118.301C199.478 118.59 199.283 118.995 199.283 119.517C199.283 120.017 199.478 120.417 199.867 120.717C200.267 121.006 200.805 121.151 201.483 121.151C202.172 121.151 202.716 121.006 203.116 120.717C203.516 120.417 203.716 120.017 203.716 119.517C203.716 118.995 203.511 118.59 203.1 118.301C202.7 118.012 202.161 117.867 201.483 117.867ZM201.483 126.467C202.283 126.467 202.916 126.3 203.383 125.967C203.85 125.634 204.083 125.172 204.083 124.584C204.083 124.006 203.85 123.55 203.383 123.217C202.916 122.884 202.283 122.717 201.483 122.717C200.683 122.717 200.056 122.884 199.6 123.217C199.144 123.55 198.917 124.006 198.917 124.584C198.917 125.172 199.144 125.634 199.6 125.967C200.056 126.3 200.683 126.467 201.483 126.467ZM211.705 116.334V128H209.538V118.151H207.072V116.334H211.705ZM222.818 116.334V117.784L218.285 128H215.969L220.352 118.167H215.769V120.151H213.752V116.334H222.818ZM232.697 116.168C234.297 116.168 235.536 116.667 236.413 117.667C237.302 118.667 237.747 120.101 237.747 121.967C237.747 123.278 237.508 124.4 237.03 125.334C236.552 126.256 235.88 126.961 235.014 127.45C234.158 127.928 233.164 128.167 232.03 128.167C231.43 128.167 230.864 128.106 230.331 127.983C229.808 127.85 229.353 127.661 228.964 127.417L229.764 125.783C230.342 126.161 231.081 126.35 231.98 126.35C233.103 126.35 233.98 126.006 234.614 125.317C235.247 124.628 235.564 123.634 235.564 122.334V122.317C235.219 122.717 234.78 123.023 234.247 123.234C233.714 123.434 233.114 123.534 232.447 123.534C231.68 123.534 230.992 123.389 230.381 123.1C229.77 122.8 229.292 122.378 228.947 121.834C228.603 121.289 228.431 120.662 228.431 119.951C228.431 119.195 228.62 118.534 228.997 117.967C229.375 117.39 229.886 116.945 230.531 116.634C231.175 116.323 231.897 116.168 232.697 116.168ZM232.864 121.834C233.564 121.834 234.13 121.645 234.564 121.267C235.008 120.889 235.23 120.412 235.23 119.834C235.23 119.267 235.014 118.801 234.58 118.434C234.158 118.056 233.569 117.867 232.814 117.867C232.136 117.867 231.586 118.051 231.164 118.417C230.742 118.773 230.531 119.251 230.531 119.851C230.531 120.462 230.742 120.945 231.164 121.3C231.586 121.656 232.153 121.834 232.864 121.834ZM247.93 116.334V117.784L243.397 128H241.081L245.464 118.167H240.881V120.151H238.864V116.334H247.93ZM253.466 116.334V128H251.3V118.151H248.833V116.334H253.466ZM268.835 126.167V128H260.236V126.55L264.869 122.15C265.391 121.65 265.741 121.217 265.919 120.851C266.108 120.473 266.202 120.101 266.202 119.734C266.202 119.19 266.019 118.773 265.652 118.484C265.286 118.195 264.747 118.051 264.036 118.051C262.847 118.051 261.936 118.456 261.303 119.267L259.786 118.101C260.242 117.49 260.853 117.017 261.619 116.684C262.397 116.34 263.264 116.168 264.219 116.168C265.486 116.168 266.497 116.468 267.252 117.067C268.008 117.667 268.385 118.484 268.385 119.517C268.385 120.151 268.252 120.745 267.986 121.3C267.719 121.856 267.208 122.489 266.452 123.2L263.336 126.167H268.835ZM275.052 121.151C276.13 121.284 276.952 121.65 277.519 122.25C278.085 122.85 278.369 123.6 278.369 124.5C278.369 125.178 278.196 125.795 277.852 126.35C277.508 126.906 276.985 127.35 276.285 127.683C275.597 128.006 274.752 128.167 273.752 128.167C272.919 128.167 272.114 128.05 271.336 127.817C270.569 127.572 269.914 127.239 269.369 126.817L270.303 125.134C270.725 125.489 271.236 125.772 271.836 125.983C272.447 126.183 273.075 126.283 273.719 126.283C274.486 126.283 275.086 126.128 275.519 125.817C275.963 125.495 276.185 125.061 276.185 124.517C276.185 123.973 275.974 123.55 275.552 123.25C275.141 122.939 274.508 122.784 273.652 122.784H272.586V121.3L275.235 118.151H269.936V116.334H277.885V117.784L275.052 121.151ZM283.273 120.851C284.917 120.851 286.134 121.173 286.922 121.817C287.711 122.45 288.106 123.317 288.106 124.417C288.106 125.117 287.933 125.75 287.589 126.317C287.245 126.883 286.728 127.333 286.039 127.667C285.35 128 284.5 128.167 283.489 128.167C282.656 128.167 281.851 128.05 281.073 127.817C280.295 127.572 279.64 127.239 279.106 126.817L280.023 125.134C280.456 125.489 280.973 125.772 281.573 125.983C282.184 126.183 282.812 126.283 283.456 126.283C284.223 126.283 284.823 126.128 285.256 125.817C285.7 125.495 285.922 125.056 285.922 124.5C285.922 123.9 285.684 123.45 285.206 123.15C284.739 122.839 283.934 122.684 282.789 122.684H279.973L280.573 116.334H287.422V118.151H282.406L282.156 120.851H283.273ZM294.222 128.167C293.288 128.167 292.455 127.933 291.722 127.467C290.989 126.989 290.411 126.3 289.989 125.4C289.566 124.489 289.355 123.411 289.355 122.167C289.355 120.923 289.566 119.851 289.989 118.951C290.411 118.04 290.989 117.351 291.722 116.884C292.455 116.406 293.288 116.168 294.222 116.168C295.155 116.168 295.988 116.406 296.721 116.884C297.466 117.351 298.049 118.04 298.471 118.951C298.893 119.851 299.105 120.923 299.105 122.167C299.105 123.411 298.893 124.489 298.471 125.4C298.049 126.3 297.466 126.989 296.721 127.467C295.988 127.933 295.155 128.167 294.222 128.167ZM294.222 126.283C295.055 126.283 295.71 125.939 296.188 125.25C296.677 124.561 296.921 123.534 296.921 122.167C296.921 120.801 296.677 119.773 296.188 119.084C295.71 118.395 295.055 118.051 294.222 118.051C293.399 118.051 292.744 118.395 292.255 119.084C291.777 119.773 291.538 120.801 291.538 122.167C291.538 123.534 291.777 124.561 292.255 125.25C292.744 125.939 293.399 126.283 294.222 126.283Z" fill="#7E70F0"/>
</g>
<defs>
<filter id="filter0_d_69_26" x="-4" y="0" width="197.941" height="128.745" filterUnits="userSpaceOnUse" color-interpolation-filters="sRGB">
<feFlood flood-opacity="0" result="BackgroundImageFix"/>
<feColorMatrix in="SourceAlpha" type="matrix" values="0 0 0 0 0 0 0 0 0 0 0 0 0 0 0 0 0 0 127 0" result="hardAlpha"/>
<feOffset dy="4"/>
<feGaussianBlur stdDeviation="2"/>
<feComposite in2="hardAlpha" operator="out"/>
<feColorMatrix type="matrix" values="0 0 0 0 0 0 0 0 0 0 0 0 0 0 0 0 0 0 0.25 0"/>
<feBlend mode="normal" in2="BackgroundImageFix" result="effect1_dropShadow_69_26"/>
<feBlend mode="normal" in="SourceGraphic" in2="effect1_dropShadow_69_26" result="shape"/>
</filter>
<filter id="filter1_d_69_26" x="231.631" y="0" width="197.941" height="128.745" filterUnits="userSpaceOnUse" color-interpolation-filters="sRGB">
<feFlood flood-opacity="0" result="BackgroundImageFix"/>
<feColorMatrix in="SourceAlpha" type="matrix" values="0 0 0 0 0 0 0 0 0 0 0 0 0 0 0 0 0 0 127 0" result="hardAlpha"/>
<feOffset dy="4"/>
<feGaussianBlur stdDeviation="2"/>
<feComposite in2="hardAlpha" operator="out"/>
<feColorMatrix type="matrix" values="0 0 0 0 0 0 0 0 0 0 0 0 0 0 0 0 0 0 0.25 0"/>
<feBlend mode="normal" in2="BackgroundImageFix" result="effect1_dropShadow_69_26"/>
<feBlend mode="normal" in="SourceGraphic" in2="effect1_dropShadow_69_26" result="shape"/>
</filter>
<filter id="filter2_d_69_26" x="113.815" y="60.2546" width="197.941" height="128.745" filterUnits="userSpaceOnUse" color-interpolation-filters="sRGB">
<feFlood flood-opacity="0" result="BackgroundImageFix"/>
<feColorMatrix in="SourceAlpha" type="matrix" values="0 0 0 0 0 0 0 0 0 0 0 0 0 0 0 0 0 0 127 0" result="hardAlpha"/>
<feOffset dy="4"/>
<feGaussianBlur stdDeviation="2"/>
<feComposite in2="hardAlpha" operator="out"/>
<feColorMatrix type="matrix" values="0 0 0 0 0 0 0 0 0 0 0 0 0 0 0 0 0 0 0.25 0"/>
<feBlend mode="normal" in2="BackgroundImageFix" result="effect1_dropShadow_69_26"/>
<feBlend mode="normal" in="SourceGraphic" in2="effect1_dropShadow_69_26" result="shape"/>
</filter>
<linearGradient id="paint0_linear_69_26" x1="94.9703" y1="0" x2="94.9703" y2="120.745" gradientUnits="userSpaceOnUse">
<stop stop-color="#FFB07F"/>
<stop offset="1" stop-color="#FDCD76"/>
</linearGradient>
<linearGradient id="paint1_linear_69_26" x1="330.601" y1="0" x2="330.601" y2="120.745" gradientUnits="userSpaceOnUse">
<stop stop-color="#FFC09F"/>
<stop offset="1" stop-color="#FCD57A"/>
</linearGradient>
<linearGradient id="paint2_linear_69_26" x1="212.786" y1="60.2546" x2="212.786" y2="181" gradientUnits="userSpaceOnUse">
<stop stop-color="#FFBFA0"/>
<stop offset="1" stop-color="#FCD677"/>
</linearGradient>
<clipPath id="clip0_69_26">
<rect width="425.571" height="189" fill="white"/>
</clipPath>
</defs>
</svg>
