<svg width="420" height="270" viewBox="0 0 420 270" fill="none" xmlns="http://www.w3.org/2000/svg">
<g filter="url(#filter0_d_73_2)">
<path d="M397.758 226.854H21.8245C17.0988 226.848 12.5682 224.969 9.2266 221.627C5.88501 218.286 4.00531 213.755 4 209.029V17.8242C4.00534 13.0986 5.88501 8.56797 9.2266 5.22643C12.5682 1.88489 17.0988 0.00531245 21.8245 0H397.758C402.484 0.00531245 407.014 1.88489 410.356 5.22643C413.697 8.56797 415.577 13.0986 415.582 17.8242V209.029C415.577 213.755 413.697 218.286 410.356 221.627C407.014 224.969 402.484 226.848 397.758 226.854V226.854Z" fill="url(#paint0_linear_73_2)"/>
</g>
<path d="M393.437 213.891H26.1454C23.7109 213.888 21.377 212.92 19.6556 211.198C17.9342 209.477 16.9659 207.143 16.9631 204.709V22.1453C16.9659 19.7109 17.9342 17.377 19.6556 15.6556C21.377 13.9342 23.7109 12.9659 26.1454 12.9632H393.437C395.871 12.9659 398.205 13.9342 399.926 15.6556C401.648 17.377 402.616 19.7109 402.619 22.1453V204.709C402.616 207.143 401.648 209.477 399.926 211.198C398.205 212.92 395.871 213.888 393.437 213.891Z" fill="#FFB27E"/>
<g filter="url(#filter1_d_73_2)">
<path d="M372.166 259.984L330.858 218.677L383.817 220.016V255.158C383.831 256.511 383.436 257.837 382.685 258.962C381.933 260.087 380.859 260.959 379.604 261.463C378.762 261.815 377.86 261.998 376.948 262C376.058 261.997 375.176 261.817 374.355 261.471C373.534 261.125 372.79 260.619 372.166 259.984V259.984Z" fill="url(#paint1_linear_73_2)"/>
</g>
<path d="M291.457 175.626C296.23 175.626 300.099 171.757 300.099 166.984C300.099 162.212 296.23 158.342 291.457 158.342C286.684 158.342 282.815 162.212 282.815 166.984C282.815 171.757 286.684 175.626 291.457 175.626Z" fill="#E6E6E6"/>
<path d="M321.704 175.626C326.477 175.626 330.347 171.757 330.347 166.984C330.347 162.212 326.477 158.342 321.704 158.342C316.932 158.342 313.062 162.212 313.062 166.984C313.062 171.757 316.932 175.626 321.704 175.626Z" fill="#E6E6E6"/>
<path d="M351.952 175.626C356.725 175.626 360.594 171.757 360.594 166.984C360.594 162.212 356.725 158.342 351.952 158.342C347.179 158.342 343.31 162.212 343.31 166.984C343.31 171.757 347.179 175.626 351.952 175.626Z" fill="#E6E6E6"/>
<path d="M41.2927 43.7151H47.7342C49.3501 43.7151 50.7839 44.0353 52.0359 44.6758C53.2878 45.3164 54.2558 46.2189 54.94 47.3835C55.6387 48.5335 55.9881 49.8582 55.9881 51.3575C55.9881 52.8569 55.6387 54.1889 54.94 55.3535C54.2558 56.5035 53.2878 57.3987 52.0359 58.0392C50.7839 58.6797 49.3501 59 47.7342 59H41.2927V43.7151ZM47.6032 57.1003C48.8406 57.1003 49.9251 56.8601 50.8567 56.3797C51.8029 55.8993 52.5308 55.2297 53.0403 54.3709C53.5498 53.4974 53.8045 52.493 53.8045 51.3575C53.8045 50.2221 53.5498 49.2249 53.0403 48.3661C52.5308 47.4926 51.8029 46.8157 50.8567 46.3353C49.9251 45.855 48.8406 45.6148 47.6032 45.6148H43.4763V57.1003H47.6032ZM69.4863 53.2791C69.4863 53.4392 69.4717 53.6503 69.4426 53.9123H60.0533C60.1843 54.9313 60.6283 55.7538 61.3852 56.3797C62.1568 56.9911 63.1103 57.2968 64.2457 57.2968C65.6286 57.2968 66.7422 56.831 67.5866 55.8993L68.7438 57.2532C68.2198 57.8645 67.5647 58.3304 66.7786 58.6506C66.0071 58.9709 65.141 59.131 64.1802 59.131C62.9574 59.131 61.8729 58.8835 60.9267 58.3886C59.9805 57.8791 59.2454 57.1731 58.7213 56.2705C58.2118 55.368 57.9571 54.349 57.9571 53.2136C57.9571 52.0927 58.2045 51.081 58.6995 50.1784C59.209 49.2759 59.9004 48.5771 60.7738 48.0822C61.6618 47.5727 62.659 47.318 63.7653 47.318C64.8717 47.318 65.8543 47.5727 66.7131 48.0822C67.5866 48.5771 68.2635 49.2759 68.7438 50.1784C69.2388 51.081 69.4863 52.1145 69.4863 53.2791ZM63.7653 49.0866C62.7609 49.0866 61.9166 49.3923 61.2324 50.0037C60.5628 50.6151 60.1697 51.4158 60.0533 52.4056H67.4774C67.3609 51.4303 66.9606 50.637 66.2764 50.0256C65.6068 49.3996 64.7698 49.0866 63.7653 49.0866ZM78.9041 58.3231C78.5984 58.5851 78.2199 58.7889 77.7686 58.9345C77.3173 59.0655 76.8515 59.131 76.3711 59.131C75.2066 59.131 74.304 58.818 73.6635 58.1921C73.023 57.5661 72.7027 56.6709 72.7027 55.5063V49.1521H70.7375V47.4271H72.7027V44.8942H74.799V47.4271H78.118V49.1521H74.799V55.419C74.799 56.0449 74.9518 56.5253 75.2575 56.8601C75.5778 57.1949 76.029 57.3623 76.6113 57.3623C77.2518 57.3623 77.7977 57.1804 78.249 56.8164L78.9041 58.3231ZM85.6526 47.318C87.2539 47.318 88.4767 47.711 89.321 48.4971C90.1799 49.2832 90.6093 50.455 90.6093 52.0126V59H88.6223V57.4715C88.2729 58.0101 87.7707 58.425 87.1156 58.7161C86.4751 58.9927 85.7108 59.131 84.8229 59.131C83.5273 59.131 82.4865 58.818 81.7004 58.1921C80.9289 57.5661 80.5431 56.7437 80.5431 55.7247C80.5431 54.7057 80.9143 53.8905 81.6567 53.2791C82.3991 52.6531 83.5782 52.3401 85.1941 52.3401H88.5131V51.9253C88.5131 51.0227 88.2511 50.3313 87.727 49.8509C87.2029 49.3705 86.4314 49.1303 85.4124 49.1303C84.7282 49.1303 84.0586 49.2468 83.4036 49.4797C82.7485 49.698 82.1953 49.9965 81.744 50.3749L80.8706 48.8028C81.4675 48.3224 82.1808 47.9585 83.0105 47.711C83.8403 47.449 84.721 47.318 85.6526 47.318ZM85.1722 57.5152C85.9729 57.5152 86.6643 57.3405 87.2466 56.9911C87.8289 56.6272 88.2511 56.1177 88.5131 55.4626V53.8468H85.2814C83.5055 53.8468 82.6175 54.4436 82.6175 55.6373C82.6175 56.2196 82.8431 56.6781 83.2944 57.013C83.7456 57.3478 84.3716 57.5152 85.1722 57.5152ZM94.4885 47.4271H96.5848V59H94.4885V47.4271ZM95.5366 45.1999C95.129 45.1999 94.787 45.0689 94.5104 44.8069C94.2483 44.5448 94.1173 44.2246 94.1173 43.8461C94.1173 43.4676 94.2483 43.1474 94.5104 42.8853C94.787 42.6087 95.129 42.4704 95.5366 42.4704C95.9442 42.4704 96.2791 42.6015 96.5411 42.8635C96.8177 43.111 96.956 43.4239 96.956 43.8024C96.956 44.1955 96.8177 44.5303 96.5411 44.8069C96.2791 45.0689 95.9442 45.1999 95.5366 45.1999ZM100.587 42.798H102.683V59H100.587V42.798ZM117.145 53.2791C117.145 53.4392 117.13 53.6503 117.101 53.9123H107.712C107.843 54.9313 108.287 55.7538 109.044 56.3797C109.816 56.9911 110.769 57.2968 111.904 57.2968C113.287 57.2968 114.401 56.831 115.245 55.8993L116.403 57.2532C115.879 57.8645 115.223 58.3304 114.437 58.6506C113.666 58.9709 112.8 59.131 111.839 59.131C110.616 59.131 109.532 58.8835 108.585 58.3886C107.639 57.8791 106.904 57.1731 106.38 56.2705C105.871 55.368 105.616 54.349 105.616 53.2136C105.616 52.0927 105.863 51.081 106.358 50.1784C106.868 49.2759 107.559 48.5771 108.433 48.0822C109.321 47.5727 110.318 47.318 111.424 47.318C112.53 47.318 113.513 47.5727 114.372 48.0822C115.245 48.5771 115.922 49.2759 116.403 50.1784C116.898 51.081 117.145 52.1145 117.145 53.2791ZM111.424 49.0866C110.42 49.0866 109.575 49.3923 108.891 50.0037C108.222 50.6151 107.828 51.4158 107.712 52.4056H115.136C115.02 51.4303 114.619 50.637 113.935 50.0256C113.266 49.3996 112.429 49.0866 111.424 49.0866ZM130.974 42.798V59H128.965V57.1658C128.499 57.8063 127.909 58.294 127.196 58.6288C126.483 58.9636 125.697 59.131 124.838 59.131C123.717 59.131 122.712 58.8835 121.824 58.3886C120.937 57.8937 120.238 57.2022 119.728 56.3142C119.233 55.4117 118.986 54.3781 118.986 53.2136C118.986 52.049 119.233 51.0227 119.728 50.1347C120.238 49.2468 120.937 48.5553 121.824 48.0604C122.712 47.5654 123.717 47.318 124.838 47.318C125.668 47.318 126.432 47.4781 127.131 47.7983C127.829 48.104 128.412 48.5626 128.877 49.174V42.798H130.974ZM125.012 57.2968C125.74 57.2968 126.403 57.1294 127 56.7946C127.596 56.4452 128.062 55.9649 128.397 55.3535C128.732 54.7275 128.899 54.0142 128.899 53.2136C128.899 52.4129 128.732 51.7069 128.397 51.0955C128.062 50.4696 127.596 49.9892 127 49.6544C126.403 49.3195 125.74 49.1521 125.012 49.1521C124.27 49.1521 123.6 49.3195 123.004 49.6544C122.421 49.9892 121.956 50.4696 121.606 51.0955C121.271 51.7069 121.104 52.4129 121.104 53.2136C121.104 54.0142 121.271 54.7275 121.606 55.3535C121.956 55.9649 122.421 56.4452 123.004 56.7946C123.6 57.1294 124.27 57.2968 125.012 57.2968ZM134.197 52.0999H140.071V53.9123H134.197V52.0999ZM150.654 59.1747C149.111 59.1747 147.721 58.8399 146.483 58.1702C145.246 57.4861 144.271 56.5471 143.557 55.3535C142.858 54.1598 142.509 52.8278 142.509 51.3575C142.509 49.8873 142.858 48.5553 143.557 47.3616C144.271 46.1679 145.246 45.2363 146.483 44.5667C147.721 43.8825 149.111 43.5404 150.654 43.5404C152.182 43.5404 153.565 43.8825 154.803 44.5667C156.04 45.2363 157.008 46.1679 157.707 47.3616C158.405 48.5407 158.755 49.8727 158.755 51.3575C158.755 52.8424 158.405 54.1816 157.707 55.3753C157.008 56.5544 156.04 57.4861 154.803 58.1702C153.565 58.8399 152.182 59.1747 150.654 59.1747ZM150.654 57.2313C151.775 57.2313 152.779 56.9766 153.667 56.4671C154.57 55.9576 155.276 55.2588 155.785 54.3709C156.309 53.4683 156.571 52.4639 156.571 51.3575C156.571 50.2512 156.309 49.254 155.785 48.3661C155.276 47.4635 154.57 46.7575 153.667 46.248C152.779 45.7385 151.775 45.4838 150.654 45.4838C149.533 45.4838 148.514 45.7385 147.597 46.248C146.694 46.7575 145.981 47.4635 145.457 48.3661C144.947 49.254 144.693 50.2512 144.693 51.3575C144.693 52.4639 144.947 53.4683 145.457 54.3709C145.981 55.2588 146.694 55.9576 147.597 56.4671C148.514 56.9766 149.533 57.2313 150.654 57.2313ZM163.795 49.3705C164.159 48.7009 164.698 48.1914 165.411 47.842C166.125 47.4926 166.991 47.318 168.01 47.318V49.3487C167.893 49.3341 167.733 49.3268 167.529 49.3268C166.394 49.3268 165.499 49.6689 164.844 50.3531C164.203 51.0227 163.883 51.9835 163.883 53.2354V59H161.787V47.4271H163.795V49.3705ZM170.593 47.4271H172.69V59H170.593V47.4271ZM171.641 45.1999C171.234 45.1999 170.892 45.0689 170.615 44.8069C170.353 44.5448 170.222 44.2246 170.222 43.8461C170.222 43.4676 170.353 43.1474 170.615 42.8853C170.892 42.6087 171.234 42.4704 171.641 42.4704C172.049 42.4704 172.384 42.6015 172.646 42.8635C172.922 43.111 173.061 43.4239 173.061 43.8024C173.061 44.1955 172.922 44.5303 172.646 44.8069C172.384 45.0689 172.049 45.1999 171.641 45.1999ZM187.151 53.2791C187.151 53.4392 187.137 53.6503 187.107 53.9123H177.718C177.849 54.9313 178.293 55.7538 179.05 56.3797C179.822 56.9911 180.775 57.2968 181.911 57.2968C183.294 57.2968 184.407 56.831 185.251 55.8993L186.409 57.2532C185.885 57.8645 185.23 58.3304 184.444 58.6506C183.672 58.9709 182.806 59.131 181.845 59.131C180.622 59.131 179.538 58.8835 178.592 58.3886C177.645 57.8791 176.91 57.1731 176.386 56.2705C175.877 55.368 175.622 54.349 175.622 53.2136C175.622 52.0927 175.869 51.081 176.364 50.1784C176.874 49.2759 177.565 48.5771 178.439 48.0822C179.327 47.5727 180.324 47.318 181.43 47.318C182.537 47.318 183.519 47.5727 184.378 48.0822C185.251 48.5771 185.928 49.2759 186.409 50.1784C186.904 51.081 187.151 52.1145 187.151 53.2791ZM181.43 49.0866C180.426 49.0866 179.581 49.3923 178.897 50.0037C178.228 50.6151 177.835 51.4158 177.718 52.4056H185.142C185.026 51.4303 184.626 50.637 183.941 50.0256C183.272 49.3996 182.435 49.0866 181.43 49.0866ZM196.241 47.318C197.712 47.318 198.876 47.7474 199.735 48.6063C200.609 49.4506 201.045 50.6952 201.045 52.3401V59H198.949V52.5803C198.949 51.4594 198.68 50.6151 198.141 50.0474C197.603 49.4797 196.831 49.1958 195.827 49.1958C194.691 49.1958 193.796 49.5306 193.141 50.2003C192.486 50.8553 192.158 51.8015 192.158 53.0389V59H190.062V47.4271H192.071V49.174C192.493 48.5771 193.061 48.1186 193.774 47.7983C194.502 47.4781 195.324 47.318 196.241 47.318ZM211.432 58.3231C211.126 58.5851 210.747 58.7889 210.296 58.9345C209.845 59.0655 209.379 59.131 208.899 59.131C207.734 59.131 206.832 58.818 206.191 58.1921C205.551 57.5661 205.23 56.6709 205.23 55.5063V49.1521H203.265V47.4271H205.23V44.8942H207.327V47.4271H210.646V49.1521H207.327V55.419C207.327 56.0449 207.479 56.5253 207.785 56.8601C208.105 57.1949 208.557 57.3623 209.139 57.3623C209.779 57.3623 210.325 57.1804 210.777 56.8164L211.432 58.3231ZM224.041 53.2791C224.041 53.4392 224.027 53.6503 223.998 53.9123H214.608C214.739 54.9313 215.183 55.7538 215.94 56.3797C216.712 56.9911 217.665 57.2968 218.801 57.2968C220.184 57.2968 221.297 56.831 222.142 55.8993L223.299 57.2532C222.775 57.8645 222.12 58.3304 221.334 58.6506C220.562 58.9709 219.696 59.131 218.735 59.131C217.513 59.131 216.428 58.8835 215.482 58.3886C214.536 57.8791 213.8 57.1731 213.276 56.2705C212.767 55.368 212.512 54.349 212.512 53.2136C212.512 52.0927 212.76 51.081 213.255 50.1784C213.764 49.2759 214.456 48.5771 215.329 48.0822C216.217 47.5727 217.214 47.318 218.32 47.318C219.427 47.318 220.409 47.5727 221.268 48.0822C222.142 48.5771 222.819 49.2759 223.299 50.1784C223.794 51.081 224.041 52.1145 224.041 53.2791ZM218.32 49.0866C217.316 49.0866 216.472 49.3923 215.788 50.0037C215.118 50.6151 214.725 51.4158 214.608 52.4056H222.033C221.916 51.4303 221.516 50.637 220.832 50.0256C220.162 49.3996 219.325 49.0866 218.32 49.0866ZM237.87 42.798V59H235.861V57.1658C235.395 57.8063 234.806 58.294 234.092 58.6288C233.379 58.9636 232.593 59.131 231.734 59.131C230.613 59.131 229.609 58.8835 228.721 58.3886C227.833 57.8937 227.134 57.2022 226.625 56.3142C226.13 55.4117 225.882 54.3781 225.882 53.2136C225.882 52.049 226.13 51.0227 226.625 50.1347C227.134 49.2468 227.833 48.5553 228.721 48.0604C229.609 47.5654 230.613 47.318 231.734 47.318C232.564 47.318 233.328 47.4781 234.027 47.7983C234.726 48.104 235.308 48.5626 235.774 49.174V42.798H237.87ZM231.909 57.2968C232.637 57.2968 233.299 57.1294 233.896 56.7946C234.493 56.4452 234.959 55.9649 235.293 55.3535C235.628 54.7275 235.796 54.0142 235.796 53.2136C235.796 52.4129 235.628 51.7069 235.293 51.0955C234.959 50.4696 234.493 49.9892 233.896 49.6544C233.299 49.3195 232.637 49.1521 231.909 49.1521C231.166 49.1521 230.497 49.3195 229.9 49.6544C229.318 49.9892 228.852 50.4696 228.503 51.0955C228.168 51.7069 228 52.4129 228 53.2136C228 54.0142 228.168 54.7275 228.503 55.3535C228.852 55.9649 229.318 56.4452 229.9 56.7946C230.497 57.1294 231.166 57.2968 231.909 57.2968ZM251.915 47.318C253.516 47.318 254.739 47.711 255.583 48.4971C256.442 49.2832 256.871 50.455 256.871 52.0126V59H254.884V57.4715C254.535 58.0101 254.033 58.425 253.378 58.7161C252.737 58.9927 251.973 59.131 251.085 59.131C249.789 59.131 248.748 58.818 247.962 58.1921C247.191 57.5661 246.805 56.7437 246.805 55.7247C246.805 54.7057 247.176 53.8905 247.919 53.2791C248.661 52.6531 249.84 52.3401 251.456 52.3401H254.775V51.9253C254.775 51.0227 254.513 50.3313 253.989 49.8509C253.465 49.3705 252.693 49.1303 251.674 49.1303C250.99 49.1303 250.321 49.2468 249.665 49.4797C249.01 49.698 248.457 49.9965 248.006 50.3749L247.133 48.8028C247.729 48.3224 248.443 47.9585 249.272 47.711C250.102 47.449 250.983 47.318 251.915 47.318ZM251.434 57.5152C252.235 57.5152 252.926 57.3405 253.509 56.9911C254.091 56.6272 254.513 56.1177 254.775 55.4626V53.8468H251.543C249.767 53.8468 248.879 54.4436 248.879 55.6373C248.879 56.2196 249.105 56.6781 249.556 57.013C250.008 57.3478 250.634 57.5152 251.434 57.5152ZM266.93 47.318C268.4 47.318 269.565 47.7474 270.424 48.6063C271.297 49.4506 271.734 50.6952 271.734 52.3401V59H269.638V52.5803C269.638 51.4594 269.368 50.6151 268.83 50.0474C268.291 49.4797 267.519 49.1958 266.515 49.1958C265.38 49.1958 264.484 49.5306 263.829 50.2003C263.174 50.8553 262.847 51.8015 262.847 53.0389V59H260.75V47.4271H262.759V49.174C263.181 48.5771 263.749 48.1186 264.463 47.7983C265.19 47.4781 266.013 47.318 266.93 47.318ZM286.595 42.798V59H284.586V57.1658C284.12 57.8063 283.531 58.294 282.817 58.6288C282.104 58.9636 281.318 59.131 280.459 59.131C279.338 59.131 278.334 58.8835 277.446 58.3886C276.558 57.8937 275.859 57.2022 275.35 56.3142C274.855 55.4117 274.607 54.3781 274.607 53.2136C274.607 52.049 274.855 51.0227 275.35 50.1347C275.859 49.2468 276.558 48.5553 277.446 48.0604C278.334 47.5654 279.338 47.318 280.459 47.318C281.289 47.318 282.053 47.4781 282.752 47.7983C283.451 48.104 284.033 48.5626 284.499 49.174V42.798H286.595ZM280.634 57.2968C281.362 57.2968 282.024 57.1294 282.621 56.7946C283.218 56.4452 283.684 55.9649 284.018 55.3535C284.353 54.7275 284.521 54.0142 284.521 53.2136C284.521 52.4129 284.353 51.7069 284.018 51.0955C283.684 50.4696 283.218 49.9892 282.621 49.6544C282.024 49.3195 281.362 49.1521 280.634 49.1521C279.891 49.1521 279.222 49.3195 278.625 49.6544C278.043 49.9892 277.577 50.4696 277.227 51.0955C276.893 51.7069 276.725 52.4129 276.725 53.2136C276.725 54.0142 276.893 54.7275 277.227 55.3535C277.577 55.9649 278.043 56.4452 278.625 56.7946C279.222 57.1294 279.891 57.2968 280.634 57.2968ZM303.565 59.1747C302.037 59.1747 300.654 58.8399 299.417 58.1702C298.194 57.4861 297.233 56.5544 296.534 55.3753C295.836 54.1816 295.486 52.8424 295.486 51.3575C295.486 49.8727 295.836 48.5407 296.534 47.3616C297.233 46.1679 298.201 45.2363 299.439 44.5667C300.676 43.8825 302.059 43.5404 303.587 43.5404C304.781 43.5404 305.873 43.7442 306.863 44.1518C307.853 44.5448 308.697 45.1344 309.396 45.9205L307.976 47.2961C306.826 46.0879 305.392 45.4838 303.675 45.4838C302.539 45.4838 301.513 45.7385 300.596 46.248C299.679 46.7575 298.958 47.4635 298.434 48.3661C297.925 49.254 297.67 50.2512 297.67 51.3575C297.67 52.4639 297.925 53.4683 298.434 54.3709C298.958 55.2588 299.679 55.9576 300.596 56.4671C301.513 56.9766 302.539 57.2313 303.675 57.2313C305.378 57.2313 306.812 56.6199 307.976 55.3971L309.396 56.7728C308.697 57.5589 307.845 58.1557 306.841 58.5633C305.851 58.9709 304.759 59.1747 303.565 59.1747ZM314.214 49.3705C314.578 48.7009 315.116 48.1914 315.83 47.842C316.543 47.4926 317.409 47.318 318.428 47.318V49.3487C318.312 49.3341 318.151 49.3268 317.948 49.3268C316.812 49.3268 315.917 49.6689 315.262 50.3531C314.621 51.0227 314.301 51.9835 314.301 53.2354V59H312.205V47.4271H314.214V49.3705ZM331.364 53.2791C331.364 53.4392 331.35 53.6503 331.321 53.9123H321.931C322.062 54.9313 322.506 55.7538 323.263 56.3797C324.035 56.9911 324.988 57.2968 326.124 57.2968C327.507 57.2968 328.62 56.831 329.465 55.8993L330.622 57.2532C330.098 57.8645 329.443 58.3304 328.657 58.6506C327.885 58.9709 327.019 59.131 326.058 59.131C324.835 59.131 323.751 58.8835 322.805 58.3886C321.858 57.8791 321.123 57.1731 320.599 56.2705C320.09 55.368 319.835 54.349 319.835 53.2136C319.835 52.0927 320.083 51.081 320.577 50.1784C321.087 49.2759 321.778 48.5771 322.652 48.0822C323.54 47.5727 324.537 47.318 325.643 47.318C326.75 47.318 327.732 47.5727 328.591 48.0822C329.465 48.5771 330.141 49.2759 330.622 50.1784C331.117 51.081 331.364 52.1145 331.364 53.2791ZM325.643 49.0866C324.639 49.0866 323.795 49.3923 323.11 50.0037C322.441 50.6151 322.048 51.4158 321.931 52.4056H329.355C329.239 51.4303 328.839 50.637 328.154 50.0256C327.485 49.3996 326.648 49.0866 325.643 49.0866ZM338.169 47.318C339.771 47.318 340.994 47.711 341.838 48.4971C342.697 49.2832 343.126 50.455 343.126 52.0126V59H341.139V57.4715C340.79 58.0101 340.288 58.425 339.632 58.7161C338.992 58.9927 338.228 59.131 337.34 59.131C336.044 59.131 335.003 58.818 334.217 58.1921C333.446 57.5661 333.06 56.7437 333.06 55.7247C333.06 54.7057 333.431 53.8905 334.174 53.2791C334.916 52.6531 336.095 52.3401 337.711 52.3401H341.03V51.9253C341.03 51.0227 340.768 50.3313 340.244 49.8509C339.72 49.3705 338.948 49.1303 337.929 49.1303C337.245 49.1303 336.575 49.2468 335.92 49.4797C335.265 49.698 334.712 49.9965 334.261 50.3749L333.387 48.8028C333.984 48.3224 334.698 47.9585 335.527 47.711C336.357 47.449 337.238 47.318 338.169 47.318ZM337.689 57.5152C338.49 57.5152 339.181 57.3405 339.763 56.9911C340.346 56.6272 340.768 56.1177 341.03 55.4626V53.8468H337.798C336.022 53.8468 335.134 54.4436 335.134 55.6373C335.134 56.2196 335.36 56.6781 335.811 57.013C336.262 57.3478 336.888 57.5152 337.689 57.5152ZM353.512 58.3231C353.207 58.5851 352.828 58.7889 352.377 58.9345C351.926 59.0655 351.46 59.131 350.979 59.131C349.815 59.131 348.912 58.818 348.272 58.1921C347.631 57.5661 347.311 56.6709 347.311 55.5063V49.1521H345.346V47.4271H347.311V44.8942H349.407V47.4271H352.726V49.1521H349.407V55.419C349.407 56.0449 349.56 56.5253 349.866 56.8601C350.186 57.1949 350.637 57.3623 351.22 57.3623C351.86 57.3623 352.406 57.1804 352.857 56.8164L353.512 58.3231ZM356.047 47.4271H358.143V59H356.047V47.4271ZM357.095 45.1999C356.687 45.1999 356.345 45.0689 356.068 44.8069C355.806 44.5448 355.675 44.2246 355.675 43.8461C355.675 43.4676 355.806 43.1474 356.068 42.8853C356.345 42.6087 356.687 42.4704 357.095 42.4704C357.502 42.4704 357.837 42.6015 358.099 42.8635C358.376 43.111 358.514 43.4239 358.514 43.8024C358.514 44.1955 358.376 44.5303 358.099 44.8069C357.837 45.0689 357.502 45.1999 357.095 45.1999ZM372.386 47.4271L367.32 59H365.18L360.115 47.4271H362.298L366.272 56.7073L370.334 47.4271H372.386ZM384.482 53.2791C384.482 53.4392 384.467 53.6503 384.438 53.9123H375.049C375.18 54.9313 375.624 55.7538 376.381 56.3797C377.152 56.9911 378.106 57.2968 379.241 57.2968C380.624 57.2968 381.738 56.831 382.582 55.8993L383.739 57.2532C383.215 57.8645 382.56 58.3304 381.774 58.6506C381.003 58.9709 380.137 59.131 379.176 59.131C377.953 59.131 376.869 58.8835 375.922 58.3886C374.976 57.8791 374.241 57.1731 373.717 56.2705C373.207 55.368 372.953 54.349 372.953 53.2136C372.953 52.0927 373.2 51.081 373.695 50.1784C374.205 49.2759 374.896 48.5771 375.77 48.0822C376.657 47.5727 377.655 47.318 378.761 47.318C379.867 47.318 380.85 47.5727 381.709 48.0822C382.582 48.5771 383.259 49.2759 383.739 50.1784C384.234 51.081 384.482 52.1145 384.482 53.2791ZM378.761 49.0866C377.757 49.0866 376.912 49.3923 376.228 50.0037C375.558 50.6151 375.165 51.4158 375.049 52.4056H382.473C382.357 51.4303 381.956 50.637 381.272 50.0256C380.602 49.3996 379.765 49.0866 378.761 49.0866ZM45.7472 86.1747C44.5972 86.1747 43.4836 86 42.4064 85.6506C41.3437 85.2867 40.5067 84.8209 39.8953 84.2532L40.7032 82.55C41.2855 83.074 42.0279 83.5035 42.9304 83.8383C43.8475 84.1585 44.7864 84.3187 45.7472 84.3187C47.0137 84.3187 47.9599 84.1076 48.5858 83.6854C49.2118 83.2487 49.5248 82.6737 49.5248 81.9604C49.5248 81.4364 49.3501 81.0142 49.0007 80.6939C48.6659 80.3591 48.2437 80.1044 47.7342 79.9297C47.2393 79.755 46.5333 79.5585 45.6162 79.3401C44.4662 79.0636 43.5345 78.787 42.8212 78.5104C42.1225 78.2338 41.5184 77.8116 41.0089 77.2439C40.5139 76.6616 40.2665 75.8828 40.2665 74.9075C40.2665 74.0923 40.4775 73.3572 40.8997 72.7021C41.3364 72.047 41.9915 71.523 42.8649 71.13C43.7383 70.7369 44.8228 70.5404 46.1184 70.5404C47.0209 70.5404 47.9089 70.6568 48.7824 70.8898C49.6558 71.1227 50.4055 71.4575 51.0314 71.8942L50.3108 73.641C49.6703 73.2334 48.9862 72.9278 48.2583 72.724C47.5304 72.5056 46.8171 72.3964 46.1184 72.3964C44.8811 72.3964 43.9494 72.6221 43.3234 73.0733C42.7121 73.5246 42.4064 74.1069 42.4064 74.8202C42.4064 75.3442 42.581 75.7737 42.9304 76.1085C43.2798 76.4287 43.7092 76.6835 44.2187 76.8727C44.7428 77.0474 45.4488 77.2366 46.3368 77.4404C47.4868 77.717 48.4111 77.9936 49.1099 78.2702C49.8086 78.5468 50.4055 78.9689 50.9004 79.5367C51.4099 80.1044 51.6647 80.8686 51.6647 81.8294C51.6647 82.63 51.4463 83.3652 51.0096 84.0348C50.5729 84.6899 49.9105 85.2139 49.0225 85.607C48.1346 85.9854 47.0428 86.1747 45.7472 86.1747ZM65.0083 80.2791C65.0083 80.4392 64.9937 80.6503 64.9646 80.9123H55.5753C55.7063 81.9313 56.1503 82.7538 56.9072 83.3797C57.6788 83.9911 58.6323 84.2968 59.7677 84.2968C61.1506 84.2968 62.2642 83.831 63.1086 82.8993L64.2658 84.2532C63.7418 84.8645 63.0867 85.3304 62.3006 85.6506C61.5291 85.9709 60.663 86.131 59.7022 86.131C58.4794 86.131 57.3949 85.8835 56.4487 85.3886C55.5025 84.8791 54.7674 84.1731 54.2433 83.2705C53.7338 82.368 53.4791 81.349 53.4791 80.2136C53.4791 79.0927 53.7265 78.081 54.2215 77.1784C54.731 76.2759 55.4224 75.5771 56.2958 75.0822C57.1838 74.5727 58.181 74.318 59.2873 74.318C60.3937 74.318 61.3763 74.5727 62.2351 75.0822C63.1086 75.5771 63.7855 76.2759 64.2658 77.1784C64.7608 78.081 65.0083 79.1145 65.0083 80.2791ZM59.2873 76.0866C58.2829 76.0866 57.4386 76.3923 56.7544 77.0037C56.0848 77.6151 55.6917 78.4158 55.5753 79.4056H62.9994C62.8829 78.4303 62.4826 77.637 61.7984 77.0256C61.1288 76.3996 60.2918 76.0866 59.2873 76.0866ZM67.919 69.798H70.0153V86H67.919V69.798ZM78.2538 71.392C77.0019 71.392 76.3759 72.0689 76.3759 73.4227V74.4271H79.7386V76.1521H76.4196V86H74.3234V76.1521H72.3582V74.4271H74.3234V73.4009C74.3234 72.2508 74.6582 71.341 75.3278 70.6714C75.9974 70.0018 76.9363 69.667 78.1446 69.667C78.6104 69.667 79.0471 69.7252 79.4547 69.8417C79.8623 69.9581 80.2117 70.1255 80.5028 70.3439L79.8696 71.9379C79.3892 71.5739 78.8506 71.392 78.2538 71.392ZM80.7599 79.0999H86.6337V80.9123H80.7599V79.0999ZM96.5815 85.3231C96.2758 85.5851 95.8973 85.7889 95.4461 85.9345C94.9948 86.0655 94.529 86.131 94.0486 86.131C92.884 86.131 91.9815 85.818 91.341 85.1921C90.7005 84.5661 90.3802 83.6709 90.3802 82.5063V76.1521H88.415V74.4271H90.3802V71.8942H92.4764V74.4271H95.7954V76.1521H92.4764V82.419C92.4764 83.0449 92.6293 83.5253 92.935 83.8601C93.2552 84.1949 93.7065 84.3623 94.2888 84.3623C94.9293 84.3623 95.4752 84.1804 95.9264 83.8164L96.5815 85.3231ZM103.33 74.318C104.931 74.318 106.154 74.711 106.998 75.4971C107.857 76.2832 108.287 77.455 108.287 79.0126V86H106.3V84.4715C105.95 85.0101 105.448 85.425 104.793 85.7161C104.153 85.9927 103.388 86.131 102.5 86.131C101.205 86.131 100.164 85.818 99.3778 85.1921C98.6063 84.5661 98.2205 83.7437 98.2205 82.7247C98.2205 81.7057 98.5918 80.8905 99.3342 80.2791C100.077 79.6531 101.256 79.3401 102.872 79.3401H106.191V78.9253C106.191 78.0227 105.929 77.3313 105.404 76.8509C104.88 76.3705 104.109 76.1303 103.09 76.1303C102.406 76.1303 101.736 76.2468 101.081 76.4797C100.426 76.698 99.8728 76.9965 99.4215 77.3749L98.5481 75.8028C99.1449 75.3224 99.8582 74.9585 100.688 74.711C101.518 74.449 102.398 74.318 103.33 74.318ZM102.85 84.5152C103.65 84.5152 104.342 84.3405 104.924 83.9911C105.506 83.6272 105.929 83.1177 106.191 82.4626V80.8468H102.959C101.183 80.8468 100.295 81.4436 100.295 82.6373C100.295 83.2196 100.521 83.6781 100.972 84.013C101.423 84.3478 102.049 84.5152 102.85 84.5152ZM122.953 74.4271V86H120.966V84.2532C120.544 84.85 119.983 85.3158 119.284 85.6506C118.6 85.9709 117.851 86.131 117.035 86.131C115.492 86.131 114.277 85.7089 113.389 84.8645C112.501 84.0057 112.057 82.7465 112.057 81.087V74.4271H114.153V80.8468C114.153 81.9677 114.422 82.8193 114.961 83.4016C115.5 83.9693 116.271 84.2532 117.276 84.2532C118.382 84.2532 119.255 83.9183 119.896 83.2487C120.536 82.5791 120.857 81.6329 120.857 80.4101V74.4271H122.953ZM138.014 74.4271V84.4278C138.014 86.4513 137.512 87.9434 136.507 88.9041C135.503 89.8795 134.004 90.3671 132.009 90.3671C130.917 90.3671 129.877 90.2143 128.887 89.9086C127.897 89.6174 127.096 89.1953 126.485 88.6421L127.489 87.0263C128.028 87.4921 128.69 87.856 129.476 88.1181C130.277 88.3946 131.099 88.5329 131.944 88.5329C133.298 88.5329 134.295 88.2127 134.935 87.5722C135.59 86.9317 135.918 85.9563 135.918 84.6462V83.7291C135.423 84.3259 134.812 84.7772 134.084 85.0829C133.37 85.374 132.592 85.5196 131.747 85.5196C130.641 85.5196 129.636 85.2867 128.734 84.8209C127.846 84.3405 127.147 83.6781 126.638 82.8338C126.128 81.975 125.873 80.9996 125.873 79.9079C125.873 78.8161 126.128 77.848 126.638 77.0037C127.147 76.1449 127.846 75.4825 128.734 75.0167C129.636 74.5509 130.641 74.318 131.747 74.318C132.621 74.318 133.429 74.4781 134.171 74.7983C134.928 75.1186 135.547 75.5917 136.027 76.2176V74.4271H138.014ZM131.987 83.6854C132.744 83.6854 133.421 83.5253 134.018 83.205C134.63 82.8848 135.103 82.4408 135.437 81.8731C135.787 81.2908 135.962 80.6357 135.962 79.9079C135.962 78.787 135.59 77.8844 134.848 77.2003C134.105 76.5015 133.152 76.1521 131.987 76.1521C130.808 76.1521 129.848 76.5015 129.105 77.2003C128.363 77.8844 127.992 78.787 127.992 79.9079C127.992 80.6357 128.159 81.2908 128.494 81.8731C128.843 82.4408 129.316 82.8848 129.913 83.205C130.524 83.5253 131.216 83.6854 131.987 83.6854ZM148.199 74.318C149.669 74.318 150.834 74.7474 151.693 75.6063C152.566 76.4506 153.003 77.6952 153.003 79.3401V86H150.906V79.5803C150.906 78.4594 150.637 77.6151 150.099 77.0474C149.56 76.4797 148.788 76.1958 147.784 76.1958C146.649 76.1958 145.753 76.5306 145.098 77.2003C144.443 77.8553 144.116 78.8015 144.116 80.0389V86H142.019V69.798H144.116V76.0648C144.552 75.5116 145.12 75.0822 145.819 74.7765C146.532 74.4708 147.325 74.318 148.199 74.318ZM163.389 85.3231C163.083 85.5851 162.705 85.7889 162.254 85.9345C161.802 86.0655 161.337 86.131 160.856 86.131C159.692 86.131 158.789 85.818 158.149 85.1921C157.508 84.5661 157.188 83.6709 157.188 82.5063V76.1521H155.223V74.4271H157.188V71.8942H159.284V74.4271H162.603V76.1521H159.284V82.419C159.284 83.0449 159.437 83.5253 159.743 83.8601C160.063 84.1949 160.514 84.3623 161.096 84.3623C161.737 84.3623 162.283 84.1804 162.734 83.8164L163.389 85.3231ZM182.683 78.2702H184.78V84.2313C184.023 84.8573 183.142 85.3377 182.138 85.6725C181.133 86.0073 180.085 86.1747 178.993 86.1747C177.45 86.1747 176.06 85.8399 174.823 85.1702C173.585 84.4861 172.61 83.5544 171.897 82.3753C171.198 81.1816 170.848 79.8424 170.848 78.3575C170.848 76.8727 171.198 75.5335 171.897 74.3398C172.61 73.1461 173.585 72.2145 174.823 71.5448C176.074 70.8752 177.479 70.5404 179.037 70.5404C180.26 70.5404 181.366 70.7442 182.356 71.1518C183.36 71.5448 184.212 72.1271 184.911 72.8986L183.557 74.2524C182.334 73.0733 180.856 72.4838 179.124 72.4838C177.96 72.4838 176.912 72.7385 175.98 73.248C175.063 73.7429 174.342 74.4417 173.818 75.3442C173.294 76.2322 173.032 77.2366 173.032 78.3575C173.032 79.4639 173.294 80.4683 173.818 81.3709C174.342 82.2588 175.063 82.9576 175.98 83.4671C176.912 83.9766 177.952 84.2313 179.102 84.2313C180.471 84.2313 181.664 83.9038 182.683 83.2487V78.2702ZM190.663 76.3705C191.027 75.7009 191.566 75.1914 192.279 74.842C192.993 74.4926 193.859 74.318 194.878 74.318V76.3487C194.761 76.3341 194.601 76.3268 194.397 76.3268C193.262 76.3268 192.367 76.6689 191.712 77.3531C191.071 78.0227 190.751 78.9835 190.751 80.2354V86H188.655V74.4271H190.663V76.3705ZM201.654 74.318C203.256 74.318 204.478 74.711 205.323 75.4971C206.182 76.2832 206.611 77.455 206.611 79.0126V86H204.624V84.4715C204.275 85.0101 203.772 85.425 203.117 85.7161C202.477 85.9927 201.712 86.131 200.825 86.131C199.529 86.131 198.488 85.818 197.702 85.1921C196.93 84.5661 196.545 83.7437 196.545 82.7247C196.545 81.7057 196.916 80.8905 197.658 80.2791C198.401 79.6531 199.58 79.3401 201.196 79.3401H204.515V78.9253C204.515 78.0227 204.253 77.3313 203.729 76.8509C203.205 76.3705 202.433 76.1303 201.414 76.1303C200.73 76.1303 200.06 76.2468 199.405 76.4797C198.75 76.698 198.197 76.9965 197.746 77.3749L196.872 75.8028C197.469 75.3224 198.182 74.9585 199.012 74.711C199.842 74.449 200.723 74.318 201.654 74.318ZM201.174 84.5152C201.975 84.5152 202.666 84.3405 203.248 83.9911C203.831 83.6272 204.253 83.1177 204.515 82.4626V80.8468H201.283C199.507 80.8468 198.619 81.4436 198.619 82.6373C198.619 83.2196 198.845 83.6781 199.296 84.013C199.747 84.3478 200.373 84.5152 201.174 84.5152ZM216.626 74.318C217.747 74.318 218.751 74.5654 219.639 75.0604C220.527 75.5553 221.219 76.2468 221.714 77.1347C222.223 78.0227 222.478 79.049 222.478 80.2136C222.478 81.3781 222.223 82.4117 221.714 83.3142C221.219 84.2022 220.527 84.8937 219.639 85.3886C218.751 85.8835 217.747 86.131 216.626 86.131C215.796 86.131 215.032 85.9709 214.333 85.6506C213.649 85.3304 213.067 84.8645 212.586 84.2532V90.2361H210.49V74.4271H212.499V76.2613C212.965 75.6208 213.554 75.1404 214.268 74.8202C214.981 74.4854 215.767 74.318 216.626 74.318ZM216.451 84.2968C217.194 84.2968 217.856 84.1294 218.438 83.7946C219.035 83.4452 219.501 82.9649 219.836 82.3535C220.185 81.7275 220.36 81.0142 220.36 80.2136C220.36 79.4129 220.185 78.7069 219.836 78.0955C219.501 77.4696 219.035 76.9892 218.438 76.6544C217.856 76.3195 217.194 76.1521 216.451 76.1521C215.723 76.1521 215.061 76.3268 214.464 76.6762C213.882 77.011 213.416 77.4841 213.067 78.0955C212.732 78.7069 212.565 79.4129 212.565 80.2136C212.565 81.0142 212.732 81.7275 213.067 82.3535C213.402 82.9649 213.867 83.4452 214.464 83.7946C215.061 84.1294 215.723 84.2968 216.451 84.2968ZM231.554 74.318C233.024 74.318 234.189 74.7474 235.047 75.6063C235.921 76.4506 236.358 77.6952 236.358 79.3401V86H234.261V79.5803C234.261 78.4594 233.992 77.6151 233.453 77.0474C232.915 76.4797 232.143 76.1958 231.139 76.1958C230.003 76.1958 229.108 76.5306 228.453 77.2003C227.798 77.8553 227.47 78.8015 227.47 80.0389V86H225.374V69.798H227.47V76.0648C227.907 75.5116 228.475 75.0822 229.174 74.7765C229.887 74.4708 230.68 74.318 231.554 74.318ZM240.237 74.4271H242.333V86H240.237V74.4271ZM241.285 72.1999C240.877 72.1999 240.535 72.0689 240.259 71.8069C239.997 71.5448 239.866 71.2246 239.866 70.8461C239.866 70.4676 239.997 70.1474 240.259 69.8853C240.535 69.6087 240.877 69.4704 241.285 69.4704C241.693 69.4704 242.027 69.6015 242.289 69.8635C242.566 70.111 242.704 70.4239 242.704 70.8024C242.704 71.1955 242.566 71.5303 242.289 71.8069C242.027 72.0689 241.693 72.1999 241.285 72.1999ZM251.38 86.131C250.2 86.131 249.145 85.8763 248.213 85.3668C247.296 84.8573 246.576 84.1585 246.052 83.2705C245.528 82.368 245.266 81.349 245.266 80.2136C245.266 79.0781 245.528 78.0664 246.052 77.1784C246.576 76.2759 247.296 75.5771 248.213 75.0822C249.145 74.5727 250.2 74.318 251.38 74.318C252.428 74.318 253.359 74.529 254.175 74.9512C255.004 75.3733 255.645 75.9847 256.096 76.7854L254.502 77.8116C254.138 77.2585 253.687 76.8436 253.148 76.567C252.61 76.2904 252.013 76.1521 251.358 76.1521C250.601 76.1521 249.917 76.3195 249.305 76.6544C248.708 76.9892 248.235 77.4696 247.886 78.0955C247.551 78.7069 247.384 79.4129 247.384 80.2136C247.384 81.0288 247.551 81.7493 247.886 82.3753C248.235 82.9867 248.708 83.4598 249.305 83.7946C249.917 84.1294 250.601 84.2968 251.358 84.2968C252.013 84.2968 252.61 84.1585 253.148 83.8819C253.687 83.6054 254.138 83.1905 254.502 82.6373L256.096 83.6418C255.645 84.4424 255.004 85.0611 254.175 85.4978C253.359 85.9199 252.428 86.131 251.38 86.131ZM264.98 70.7151H271.421C273.037 70.7151 274.471 71.0353 275.723 71.6758C276.975 72.3164 277.943 73.2189 278.627 74.3835C279.326 75.5335 279.675 76.8582 279.675 78.3575C279.675 79.8569 279.326 81.1889 278.627 82.3535C277.943 83.5035 276.975 84.3987 275.723 85.0392C274.471 85.6797 273.037 86 271.421 86H264.98V70.7151ZM271.29 84.1003C272.528 84.1003 273.612 83.8601 274.544 83.3797C275.49 82.8993 276.218 82.2297 276.727 81.3709C277.237 80.4974 277.492 79.493 277.492 78.3575C277.492 77.2221 277.237 76.2249 276.727 75.3661C276.218 74.4926 275.49 73.8157 274.544 73.3353C273.612 72.855 272.528 72.6148 271.29 72.6148H267.163V84.1003H271.29ZM293.173 80.2791C293.173 80.4392 293.159 80.6503 293.13 80.9123H283.74C283.871 81.9313 284.315 82.7538 285.072 83.3797C285.844 83.9911 286.797 84.2968 287.933 84.2968C289.316 84.2968 290.429 83.831 291.274 82.8993L292.431 84.2532C291.907 84.8645 291.252 85.3304 290.466 85.6506C289.694 85.9709 288.828 86.131 287.867 86.131C286.644 86.131 285.56 85.8835 284.614 85.3886C283.667 84.8791 282.932 84.1731 282.408 83.2705C281.899 82.368 281.644 81.349 281.644 80.2136C281.644 79.0927 281.892 78.081 282.386 77.1784C282.896 76.2759 283.587 75.5771 284.461 75.0822C285.349 74.5727 286.346 74.318 287.452 74.318C288.559 74.318 289.541 74.5727 290.4 75.0822C291.274 75.5771 291.95 76.2759 292.431 77.1784C292.926 78.081 293.173 79.1145 293.173 80.2791ZM287.452 76.0866C286.448 76.0866 285.604 76.3923 284.919 77.0037C284.25 77.6151 283.857 78.4158 283.74 79.4056H291.164C291.048 78.4303 290.648 77.637 289.963 77.0256C289.294 76.3996 288.457 76.0866 287.452 76.0866ZM299.403 86.131C298.457 86.131 297.547 86.0073 296.674 85.7598C295.8 85.4978 295.116 85.1702 294.621 84.7772L295.494 83.1177C296.004 83.4816 296.623 83.7728 297.351 83.9911C298.078 84.2095 298.813 84.3187 299.556 84.3187C301.39 84.3187 302.307 83.7946 302.307 82.7465C302.307 82.3971 302.183 82.1205 301.936 81.9167C301.689 81.7129 301.376 81.5674 300.997 81.48C300.633 81.3781 300.109 81.269 299.425 81.1525C298.493 81.0069 297.729 80.8395 297.132 80.6503C296.55 80.461 296.048 80.1408 295.625 79.6895C295.203 79.2382 294.992 78.605 294.992 77.7898C294.992 76.7417 295.429 75.9047 296.302 75.2787C297.176 74.6382 298.348 74.318 299.818 74.318C300.589 74.318 301.361 74.4126 302.133 74.6018C302.904 74.7911 303.537 75.0458 304.032 75.3661L303.137 77.0256C302.191 76.4142 301.077 76.1085 299.796 76.1085C298.908 76.1085 298.231 76.254 297.765 76.5452C297.3 76.8363 297.067 77.2221 297.067 77.7025C297.067 78.081 297.198 78.3794 297.46 78.5977C297.722 78.8161 298.042 78.9762 298.42 79.0781C298.813 79.18 299.359 79.2965 300.058 79.4275C300.99 79.5876 301.739 79.7623 302.307 79.9515C302.889 80.1262 303.384 80.4319 303.792 80.8686C304.2 81.3053 304.403 81.9167 304.403 82.7028C304.403 83.7509 303.952 84.588 303.05 85.2139C302.162 85.8253 300.946 86.131 299.403 86.131ZM307.023 74.4271H309.119V86H307.023V74.4271ZM308.071 72.1999C307.664 72.1999 307.322 72.0689 307.045 71.8069C306.783 71.5448 306.652 71.2246 306.652 70.8461C306.652 70.4676 306.783 70.1474 307.045 69.8853C307.322 69.6087 307.664 69.4704 308.071 69.4704C308.479 69.4704 308.814 69.6015 309.076 69.8635C309.352 70.111 309.491 70.4239 309.491 70.8024C309.491 71.1955 309.352 71.5303 309.076 71.8069C308.814 72.0689 308.479 72.1999 308.071 72.1999ZM324.192 74.4271V84.4278C324.192 86.4513 323.69 87.9434 322.686 88.9041C321.681 89.8795 320.182 90.3671 318.188 90.3671C317.096 90.3671 316.055 90.2143 315.065 89.9086C314.075 89.6174 313.275 89.1953 312.663 88.6421L313.668 87.0263C314.206 87.4921 314.869 87.856 315.655 88.1181C316.455 88.3946 317.278 88.5329 318.122 88.5329C319.476 88.5329 320.473 88.2127 321.114 87.5722C321.769 86.9317 322.096 85.9563 322.096 84.6462V83.7291C321.601 84.3259 320.99 84.7772 320.262 85.0829C319.549 85.374 318.77 85.5196 317.926 85.5196C316.819 85.5196 315.815 85.2867 314.912 84.8209C314.024 84.3405 313.326 83.6781 312.816 82.8338C312.307 81.975 312.052 80.9996 312.052 79.9079C312.052 78.8161 312.307 77.848 312.816 77.0037C313.326 76.1449 314.024 75.4825 314.912 75.0167C315.815 74.5509 316.819 74.318 317.926 74.318C318.799 74.318 319.607 74.4781 320.349 74.7983C321.106 75.1186 321.725 75.5917 322.205 76.2176V74.4271H324.192ZM318.166 83.6854C318.923 83.6854 319.6 83.5253 320.197 83.205C320.808 82.8848 321.281 82.4408 321.616 81.8731C321.965 81.2908 322.14 80.6357 322.14 79.9079C322.14 78.787 321.769 77.8844 321.026 77.2003C320.284 76.5015 319.33 76.1521 318.166 76.1521C316.987 76.1521 316.026 76.5015 315.284 77.2003C314.541 77.8844 314.17 78.787 314.17 79.9079C314.17 80.6357 314.337 81.2908 314.672 81.8731C315.021 82.4408 315.495 82.8848 316.091 83.205C316.703 83.5253 317.394 83.6854 318.166 83.6854ZM334.377 74.318C335.847 74.318 337.012 74.7474 337.871 75.6063C338.744 76.4506 339.181 77.6952 339.181 79.3401V86H337.085V79.5803C337.085 78.4594 336.816 77.6151 336.277 77.0474C335.738 76.4797 334.967 76.1958 333.962 76.1958C332.827 76.1958 331.932 76.5306 331.277 77.2003C330.621 77.8553 330.294 78.8015 330.294 80.0389V86H328.198V74.4271H330.207V76.174C330.629 75.5771 331.196 75.1186 331.91 74.7983C332.638 74.4781 333.46 74.318 334.377 74.318ZM353.584 80.2791C353.584 80.4392 353.569 80.6503 353.54 80.9123H344.151C344.282 81.9313 344.726 82.7538 345.483 83.3797C346.254 83.9911 347.208 84.2968 348.343 84.2968C349.726 84.2968 350.84 83.831 351.684 82.8993L352.841 84.2532C352.317 84.8645 351.662 85.3304 350.876 85.6506C350.105 85.9709 349.238 86.131 348.278 86.131C347.055 86.131 345.97 85.8835 345.024 85.3886C344.078 84.8791 343.343 84.1731 342.819 83.2705C342.309 82.368 342.054 81.349 342.054 80.2136C342.054 79.0927 342.302 78.081 342.797 77.1784C343.306 76.2759 343.998 75.5771 344.871 75.0822C345.759 74.5727 346.756 74.318 347.863 74.318C348.969 74.318 349.952 74.5727 350.811 75.0822C351.684 75.5771 352.361 76.2759 352.841 77.1784C353.336 78.081 353.584 79.1145 353.584 80.2791ZM347.863 76.0866C346.858 76.0866 346.014 76.3923 345.33 77.0037C344.66 77.6151 344.267 78.4158 344.151 79.4056H351.575C351.458 78.4303 351.058 77.637 350.374 77.0256C349.704 76.3996 348.867 76.0866 347.863 76.0866ZM358.503 76.3705C358.867 75.7009 359.406 75.1914 360.119 74.842C360.832 74.4926 361.699 74.318 362.718 74.318V76.3487C362.601 76.3341 362.441 76.3268 362.237 76.3268C361.102 76.3268 360.207 76.6689 359.551 77.3531C358.911 78.0227 358.591 78.9835 358.591 80.2354V86H356.494V74.4271H358.503V76.3705ZM58.4992 101.427L54.1757 113H52.1669L48.826 104.222L45.4415 113H43.4326L39.131 101.427H41.1181L44.4807 110.642L47.9744 101.427H49.7431L53.1713 110.685L56.6213 101.427H58.4992ZM60.6263 101.427H62.7225V113H60.6263V101.427ZM61.6744 99.1999C61.2668 99.1999 60.9247 99.0689 60.6481 98.8069C60.3861 98.5448 60.2551 98.2246 60.2551 97.8461C60.2551 97.4676 60.3861 97.1474 60.6481 96.8853C60.9247 96.6087 61.2668 96.4704 61.6744 96.4704C62.082 96.4704 62.4168 96.6015 62.6788 96.8635C62.9554 97.111 63.0937 97.4239 63.0937 97.8024C63.0937 98.1955 62.9554 98.5303 62.6788 98.8069C62.4168 99.0689 62.082 99.1999 61.6744 99.1999ZM73.2319 112.323C72.9262 112.585 72.5477 112.789 72.0965 112.934C71.6452 113.066 71.1794 113.131 70.699 113.131C69.5344 113.131 68.6319 112.818 67.9914 112.192C67.3509 111.566 67.0306 110.671 67.0306 109.506V103.152H65.0654V101.427H67.0306V98.8942H69.1268V101.427H72.4458V103.152H69.1268V109.419C69.1268 110.045 69.2797 110.525 69.5854 110.86C69.9056 111.195 70.3569 111.362 70.9392 111.362C71.5797 111.362 72.1256 111.18 72.5768 110.816L73.2319 112.323ZM81.9457 101.318C83.416 101.318 84.5805 101.747 85.4394 102.606C86.3128 103.451 86.7495 104.695 86.7495 106.34V113H84.6533V106.58C84.6533 105.459 84.384 104.615 83.8454 104.047C83.3068 103.48 82.5352 103.196 81.5308 103.196C80.3954 103.196 79.5001 103.531 78.845 104.2C78.19 104.855 77.8624 105.802 77.8624 107.039V113H75.7662V96.798H77.8624V103.065C78.2991 102.512 78.8669 102.082 79.5656 101.776C80.2789 101.471 81.0723 101.318 81.9457 101.318ZM101.537 113.131C100.358 113.131 99.3025 112.876 98.3708 112.367C97.4537 111.857 96.7332 111.159 96.2091 110.271C95.6851 109.368 95.423 108.349 95.423 107.214C95.423 106.078 95.6851 105.066 96.2091 104.178C96.7332 103.276 97.4537 102.577 98.3708 102.082C99.3025 101.573 100.358 101.318 101.537 101.318C102.585 101.318 103.517 101.529 104.332 101.951C105.162 102.373 105.802 102.985 106.253 103.785L104.659 104.812C104.296 104.258 103.844 103.844 103.306 103.567C102.767 103.29 102.17 103.152 101.515 103.152C100.758 103.152 100.074 103.32 99.4626 103.654C98.8658 103.989 98.3927 104.47 98.0433 105.096C97.7085 105.707 97.5411 106.413 97.5411 107.214C97.5411 108.029 97.7085 108.749 98.0433 109.375C98.3927 109.987 98.8658 110.46 99.4626 110.795C100.074 111.129 100.758 111.297 101.515 111.297C102.17 111.297 102.767 111.159 103.306 110.882C103.844 110.605 104.296 110.19 104.659 109.637L106.253 110.642C105.802 111.442 105.162 112.061 104.332 112.498C103.517 112.92 102.585 113.131 101.537 113.131ZM113.754 113.131C112.603 113.131 111.57 112.876 110.653 112.367C109.736 111.857 109.015 111.159 108.491 110.271C107.982 109.368 107.727 108.349 107.727 107.214C107.727 106.078 107.982 105.066 108.491 104.178C109.015 103.276 109.736 102.577 110.653 102.082C111.57 101.573 112.603 101.318 113.754 101.318C114.904 101.318 115.93 101.573 116.832 102.082C117.749 102.577 118.463 103.276 118.972 104.178C119.496 105.066 119.758 106.078 119.758 107.214C119.758 108.349 119.496 109.368 118.972 110.271C118.463 111.159 117.749 111.857 116.832 112.367C115.93 112.876 114.904 113.131 113.754 113.131ZM113.754 111.297C114.496 111.297 115.158 111.129 115.741 110.795C116.337 110.445 116.803 109.965 117.138 109.353C117.473 108.728 117.64 108.014 117.64 107.214C117.64 106.413 117.473 105.707 117.138 105.096C116.803 104.47 116.337 103.989 115.741 103.654C115.158 103.32 114.496 103.152 113.754 103.152C113.011 103.152 112.341 103.32 111.745 103.654C111.162 103.989 110.697 104.47 110.347 105.096C110.012 105.707 109.845 106.413 109.845 107.214C109.845 108.014 110.012 108.728 110.347 109.353C110.697 109.965 111.162 110.445 111.745 110.795C112.341 111.129 113.011 111.297 113.754 111.297ZM137.134 101.318C138.59 101.318 139.74 101.74 140.584 102.584C141.443 103.429 141.873 104.681 141.873 106.34V113H139.776V106.58C139.776 105.459 139.514 104.615 138.99 104.047C138.481 103.48 137.746 103.196 136.785 103.196C135.722 103.196 134.878 103.531 134.252 104.2C133.626 104.855 133.313 105.802 133.313 107.039V113H131.217V106.58C131.217 105.459 130.955 104.615 130.431 104.047C129.921 103.48 129.186 103.196 128.225 103.196C127.163 103.196 126.318 103.531 125.692 104.2C125.067 104.855 124.754 105.802 124.754 107.039V113H122.657V101.427H124.666V103.152C125.088 102.555 125.642 102.104 126.326 101.798C127.01 101.478 127.789 101.318 128.662 101.318C129.565 101.318 130.365 101.5 131.064 101.864C131.763 102.228 132.301 102.759 132.68 103.458C133.117 102.788 133.721 102.264 134.492 101.886C135.278 101.507 136.159 101.318 137.134 101.318ZM151.866 101.318C152.986 101.318 153.991 101.565 154.879 102.06C155.767 102.555 156.458 103.247 156.953 104.135C157.463 105.023 157.717 106.049 157.717 107.214C157.717 108.378 157.463 109.412 156.953 110.314C156.458 111.202 155.767 111.894 154.879 112.389C153.991 112.884 152.986 113.131 151.866 113.131C151.036 113.131 150.272 112.971 149.573 112.651C148.889 112.33 148.306 111.865 147.826 111.253V117.236H145.73V101.427H147.739V103.261C148.204 102.621 148.794 102.14 149.507 101.82C150.221 101.485 151.007 101.318 151.866 101.318ZM151.691 111.297C152.433 111.297 153.096 111.129 153.678 110.795C154.275 110.445 154.741 109.965 155.075 109.353C155.425 108.728 155.599 108.014 155.599 107.214C155.599 106.413 155.425 105.707 155.075 105.096C154.741 104.47 154.275 103.989 153.678 103.654C153.096 103.32 152.433 103.152 151.691 103.152C150.963 103.152 150.301 103.327 149.704 103.676C149.121 104.011 148.656 104.484 148.306 105.096C147.971 105.707 147.804 106.413 147.804 107.214C147.804 108.014 147.971 108.728 148.306 109.353C148.641 109.965 149.107 110.445 149.704 110.795C150.301 111.129 150.963 111.297 151.691 111.297ZM171.073 107.279C171.073 107.439 171.058 107.65 171.029 107.912H161.64C161.771 108.931 162.215 109.754 162.972 110.38C163.744 110.991 164.697 111.297 165.832 111.297C167.215 111.297 168.329 110.831 169.173 109.899L170.331 111.253C169.807 111.865 169.151 112.33 168.365 112.651C167.594 112.971 166.728 113.131 165.767 113.131C164.544 113.131 163.46 112.884 162.513 112.389C161.567 111.879 160.832 111.173 160.308 110.271C159.799 109.368 159.544 108.349 159.544 107.214C159.544 106.093 159.791 105.081 160.286 104.178C160.796 103.276 161.487 102.577 162.361 102.082C163.249 101.573 164.246 101.318 165.352 101.318C166.458 101.318 167.441 101.573 168.3 102.082C169.173 102.577 169.85 103.276 170.331 104.178C170.826 105.081 171.073 106.115 171.073 107.279ZM165.352 103.087C164.348 103.087 163.503 103.392 162.819 104.004C162.15 104.615 161.756 105.416 161.64 106.406H169.064C168.948 105.43 168.547 104.637 167.863 104.026C167.194 103.4 166.356 103.087 165.352 103.087ZM180.491 112.323C180.185 112.585 179.807 112.789 179.355 112.934C178.904 113.066 178.438 113.131 177.958 113.131C176.793 113.131 175.891 112.818 175.25 112.192C174.61 111.566 174.289 110.671 174.289 109.506V103.152H172.324V101.427H174.289V98.8942H176.386V101.427H179.705V103.152H176.386V109.419C176.386 110.045 176.539 110.525 176.844 110.86C177.164 111.195 177.616 111.362 178.198 111.362C178.839 111.362 179.384 111.18 179.836 110.816L180.491 112.323ZM193.101 107.279C193.101 107.439 193.086 107.65 193.057 107.912H183.668C183.799 108.931 184.243 109.754 185 110.38C185.771 110.991 186.725 111.297 187.86 111.297C189.243 111.297 190.357 110.831 191.201 109.899L192.358 111.253C191.834 111.865 191.179 112.33 190.393 112.651C189.621 112.971 188.755 113.131 187.794 113.131C186.572 113.131 185.487 112.884 184.541 112.389C183.595 111.879 182.86 111.173 182.336 110.271C181.826 109.368 181.571 108.349 181.571 107.214C181.571 106.093 181.819 105.081 182.314 104.178C182.823 103.276 183.515 102.577 184.388 102.082C185.276 101.573 186.273 101.318 187.38 101.318C188.486 101.318 189.469 101.573 190.327 102.082C191.201 102.577 191.878 103.276 192.358 104.178C192.853 105.081 193.101 106.115 193.101 107.279ZM187.38 103.087C186.375 103.087 185.531 103.392 184.847 104.004C184.177 104.615 183.784 105.416 183.668 106.406H191.092C190.975 105.43 190.575 104.637 189.891 104.026C189.221 103.4 188.384 103.087 187.38 103.087ZM202.191 101.318C203.661 101.318 204.826 101.747 205.684 102.606C206.558 103.451 206.995 104.695 206.995 106.34V113H204.898V106.58C204.898 105.459 204.629 104.615 204.09 104.047C203.552 103.48 202.78 103.196 201.776 103.196C200.64 103.196 199.745 103.531 199.09 104.2C198.435 104.855 198.108 105.802 198.108 107.039V113H196.011V101.427H198.02V103.174C198.442 102.577 199.01 102.119 199.723 101.798C200.451 101.478 201.274 101.318 202.191 101.318ZM215.982 113.131C214.803 113.131 213.747 112.876 212.816 112.367C211.899 111.857 211.178 111.159 210.654 110.271C210.13 109.368 209.868 108.349 209.868 107.214C209.868 106.078 210.13 105.066 210.654 104.178C211.178 103.276 211.899 102.577 212.816 102.082C213.747 101.573 214.803 101.318 215.982 101.318C217.03 101.318 217.962 101.529 218.777 101.951C219.607 102.373 220.247 102.985 220.698 103.785L219.104 104.812C218.741 104.258 218.289 103.844 217.751 103.567C217.212 103.29 216.615 103.152 215.96 103.152C215.203 103.152 214.519 103.32 213.908 103.654C213.311 103.989 212.838 104.47 212.488 105.096C212.153 105.707 211.986 106.413 211.986 107.214C211.986 108.029 212.153 108.749 212.488 109.375C212.838 109.987 213.311 110.46 213.908 110.795C214.519 111.129 215.203 111.297 215.96 111.297C216.615 111.297 217.212 111.159 217.751 110.882C218.289 110.605 218.741 110.19 219.104 109.637L220.698 110.642C220.247 111.442 219.607 112.061 218.777 112.498C217.962 112.92 217.03 113.131 215.982 113.131ZM233.701 107.279C233.701 107.439 233.687 107.65 233.657 107.912H224.268C224.399 108.931 224.843 109.754 225.6 110.38C226.372 110.991 227.325 111.297 228.461 111.297C229.843 111.297 230.957 110.831 231.801 109.899L232.959 111.253C232.435 111.865 231.78 112.33 230.993 112.651C230.222 112.971 229.356 113.131 228.395 113.131C227.172 113.131 226.088 112.884 225.142 112.389C224.195 111.879 223.46 111.173 222.936 110.271C222.427 109.368 222.172 108.349 222.172 107.214C222.172 106.093 222.419 105.081 222.914 104.178C223.424 103.276 224.115 102.577 224.989 102.082C225.877 101.573 226.874 101.318 227.98 101.318C229.086 101.318 230.069 101.573 230.928 102.082C231.801 102.577 232.478 103.276 232.959 104.178C233.454 105.081 233.701 106.115 233.701 107.279ZM227.98 103.087C226.976 103.087 226.131 103.392 225.447 104.004C224.778 104.615 224.385 105.416 224.268 106.406H231.692C231.576 105.43 231.175 104.637 230.491 104.026C229.822 103.4 228.985 103.087 227.98 103.087ZM242.476 101.427H244.572V113H242.476V101.427ZM243.524 99.1999C243.116 99.1999 242.774 99.0689 242.498 98.8069C242.236 98.5448 242.105 98.2246 242.105 97.8461C242.105 97.4676 242.236 97.1474 242.498 96.8853C242.774 96.6087 243.116 96.4704 243.524 96.4704C243.932 96.4704 244.266 96.6015 244.528 96.8635C244.805 97.111 244.943 97.4239 244.943 97.8024C244.943 98.1955 244.805 98.5303 244.528 98.8069C244.266 99.0689 243.932 99.1999 243.524 99.1999ZM254.754 101.318C256.224 101.318 257.389 101.747 258.248 102.606C259.121 103.451 259.558 104.695 259.558 106.34V113H257.462V106.58C257.462 105.459 257.192 104.615 256.654 104.047C256.115 103.48 255.344 103.196 254.339 103.196C253.204 103.196 252.308 103.531 251.653 104.2C250.998 104.855 250.671 105.802 250.671 107.039V113H248.575V101.427H250.583V103.174C251.006 102.577 251.573 102.119 252.287 101.798C253.014 101.478 253.837 101.318 254.754 101.318ZM274.345 113.131C273.166 113.131 272.111 112.876 271.179 112.367C270.262 111.857 269.542 111.159 269.017 110.271C268.493 109.368 268.231 108.349 268.231 107.214C268.231 106.078 268.493 105.066 269.017 104.178C269.542 103.276 270.262 102.577 271.179 102.082C272.111 101.573 273.166 101.318 274.345 101.318C275.393 101.318 276.325 101.529 277.14 101.951C277.97 102.373 278.611 102.985 279.062 103.785L277.468 104.812C277.104 104.258 276.653 103.844 276.114 103.567C275.575 103.29 274.979 103.152 274.323 103.152C273.567 103.152 272.882 103.32 272.271 103.654C271.674 103.989 271.201 104.47 270.852 105.096C270.517 105.707 270.349 106.413 270.349 107.214C270.349 108.029 270.517 108.749 270.852 109.375C271.201 109.987 271.674 110.46 272.271 110.795C272.882 111.129 273.567 111.297 274.323 111.297C274.979 111.297 275.575 111.159 276.114 110.882C276.653 110.605 277.104 110.19 277.468 109.637L279.062 110.642C278.611 111.442 277.97 112.061 277.14 112.498C276.325 112.92 275.393 113.131 274.345 113.131ZM283.785 103.37C284.149 102.701 284.687 102.191 285.4 101.842C286.114 101.493 286.98 101.318 287.999 101.318V103.349C287.882 103.334 287.722 103.327 287.519 103.327C286.383 103.327 285.488 103.669 284.833 104.353C284.192 105.023 283.872 105.983 283.872 107.235V113H281.776V101.427H283.785V103.37ZM300.935 107.279C300.935 107.439 300.921 107.65 300.891 107.912H291.502C291.633 108.931 292.077 109.754 292.834 110.38C293.606 110.991 294.559 111.297 295.695 111.297C297.078 111.297 298.191 110.831 299.035 109.899L300.193 111.253C299.669 111.865 299.014 112.33 298.228 112.651C297.456 112.971 296.59 113.131 295.629 113.131C294.406 113.131 293.322 112.884 292.376 112.389C291.429 111.879 290.694 111.173 290.17 110.271C289.661 109.368 289.406 108.349 289.406 107.214C289.406 106.093 289.653 105.081 290.148 104.178C290.658 103.276 291.349 102.577 292.223 102.082C293.111 101.573 294.108 101.318 295.214 101.318C296.321 101.318 297.303 101.573 298.162 102.082C299.035 102.577 299.712 103.276 300.193 104.178C300.688 105.081 300.935 106.115 300.935 107.279ZM295.214 103.087C294.21 103.087 293.365 103.392 292.681 104.004C292.012 104.615 291.619 105.416 291.502 106.406H298.926C298.81 105.43 298.409 104.637 297.725 104.026C297.056 103.4 296.219 103.087 295.214 103.087ZM307.74 101.318C309.342 101.318 310.564 101.711 311.409 102.497C312.268 103.283 312.697 104.455 312.697 106.013V113H310.71V111.472C310.361 112.01 309.858 112.425 309.203 112.716C308.563 112.993 307.799 113.131 306.911 113.131C305.615 113.131 304.574 112.818 303.788 112.192C303.017 111.566 302.631 110.744 302.631 109.725C302.631 108.706 303.002 107.89 303.744 107.279C304.487 106.653 305.666 106.34 307.282 106.34H310.601V105.925C310.601 105.023 310.339 104.331 309.815 103.851C309.291 103.37 308.519 103.13 307.5 103.13C306.816 103.13 306.146 103.247 305.491 103.48C304.836 103.698 304.283 103.996 303.832 104.375L302.958 102.803C303.555 102.322 304.268 101.958 305.098 101.711C305.928 101.449 306.809 101.318 307.74 101.318ZM307.26 111.515C308.061 111.515 308.752 111.34 309.334 110.991C309.917 110.627 310.339 110.118 310.601 109.463V107.847H307.369C305.593 107.847 304.705 108.444 304.705 109.637C304.705 110.22 304.931 110.678 305.382 111.013C305.833 111.348 306.459 111.515 307.26 111.515ZM323.083 112.323C322.778 112.585 322.399 112.789 321.948 112.934C321.497 113.066 321.031 113.131 320.55 113.131C319.386 113.131 318.483 112.818 317.843 112.192C317.202 111.566 316.882 110.671 316.882 109.506V103.152H314.917V101.427H316.882V98.8942H318.978V101.427H322.297V103.152H318.978V109.419C318.978 110.045 319.131 110.525 319.437 110.86C319.757 111.195 320.208 111.362 320.791 111.362C321.431 111.362 321.977 111.18 322.428 110.816L323.083 112.323ZM325.618 101.427H327.714V113H325.618V101.427ZM326.666 99.1999C326.258 99.1999 325.916 99.0689 325.639 98.8069C325.377 98.5448 325.246 98.2246 325.246 97.8461C325.246 97.4676 325.377 97.1474 325.639 96.8853C325.916 96.6087 326.258 96.4704 326.666 96.4704C327.073 96.4704 327.408 96.6015 327.67 96.8635C327.947 97.111 328.085 97.4239 328.085 97.8024C328.085 98.1955 327.947 98.5303 327.67 98.8069C327.408 99.0689 327.073 99.1999 326.666 99.1999ZM337.896 101.318C339.366 101.318 340.53 101.747 341.389 102.606C342.263 103.451 342.699 104.695 342.699 106.34V113H340.603V106.58C340.603 105.459 340.334 104.615 339.795 104.047C339.257 103.48 338.485 103.196 337.481 103.196C336.345 103.196 335.45 103.531 334.795 104.2C334.14 104.855 333.812 105.802 333.812 107.039V113H331.716V101.427H333.725V103.174C334.147 102.577 334.715 102.119 335.428 101.798C336.156 101.478 336.979 101.318 337.896 101.318ZM357.713 101.427V111.428C357.713 113.451 357.211 114.943 356.207 115.904C355.202 116.879 353.703 117.367 351.709 117.367C350.617 117.367 349.576 117.214 348.586 116.909C347.596 116.617 346.796 116.195 346.184 115.642L347.189 114.026C347.727 114.492 348.39 114.856 349.176 115.118C349.976 115.395 350.799 115.533 351.643 115.533C352.997 115.533 353.994 115.213 354.635 114.572C355.29 113.932 355.617 112.956 355.617 111.646V110.729C355.122 111.326 354.511 111.777 353.783 112.083C353.07 112.374 352.291 112.52 351.447 112.52C350.34 112.52 349.336 112.287 348.433 111.821C347.545 111.34 346.847 110.678 346.337 109.834C345.828 108.975 345.573 108 345.573 106.908C345.573 105.816 345.828 104.848 346.337 104.004C346.847 103.145 347.545 102.483 348.433 102.017C349.336 101.551 350.34 101.318 351.447 101.318C352.32 101.318 353.128 101.478 353.87 101.798C354.627 102.119 355.246 102.592 355.726 103.218V101.427H357.713ZM351.687 110.685C352.444 110.685 353.121 110.525 353.718 110.205C354.329 109.885 354.802 109.441 355.137 108.873C355.486 108.291 355.661 107.636 355.661 106.908C355.661 105.787 355.29 104.884 354.547 104.2C353.805 103.502 352.851 103.152 351.687 103.152C350.508 103.152 349.547 103.502 348.805 104.2C348.062 104.884 347.691 105.787 347.691 106.908C347.691 107.636 347.858 108.291 348.193 108.873C348.543 109.441 349.016 109.885 349.612 110.205C350.224 110.525 350.915 110.685 351.687 110.685ZM52.0577 128.427V138.428C52.0577 140.451 51.5555 141.943 50.551 142.904C49.5466 143.879 48.0472 144.367 46.0529 144.367C44.9611 144.367 43.9203 144.214 42.9304 143.909C41.9405 143.617 41.1399 143.195 40.5285 142.642L41.5329 141.026C42.0715 141.492 42.7339 141.856 43.52 142.118C44.3206 142.395 45.1431 142.533 45.9874 142.533C47.3412 142.533 48.3384 142.213 48.9789 141.572C49.6339 140.932 49.9615 139.956 49.9615 138.646V137.729C49.4665 138.326 48.8551 138.777 48.1273 139.083C47.414 139.374 46.6352 139.52 45.7909 139.52C44.6845 139.52 43.6801 139.287 42.7776 138.821C41.8896 138.34 41.1908 137.678 40.6813 136.834C40.1718 135.975 39.9171 135 39.9171 133.908C39.9171 132.816 40.1718 131.848 40.6813 131.004C41.1908 130.145 41.8896 129.483 42.7776 129.017C43.6801 128.551 44.6845 128.318 45.7909 128.318C46.6643 128.318 47.4722 128.478 48.2146 128.798C48.9716 129.119 49.5903 129.592 50.0707 130.218V128.427H52.0577ZM46.0311 137.685C46.788 137.685 47.4649 137.525 48.0618 137.205C48.6732 136.885 49.1463 136.441 49.4811 135.873C49.8305 135.291 50.0051 134.636 50.0051 133.908C50.0051 132.787 49.6339 131.884 48.8915 131.2C48.1491 130.502 47.1956 130.152 46.0311 130.152C44.8519 130.152 43.8912 130.502 43.1488 131.2C42.4064 131.884 42.0351 132.787 42.0351 133.908C42.0351 134.636 42.2026 135.291 42.5374 135.873C42.8867 136.441 43.3598 136.885 43.9567 137.205C44.5681 137.525 45.2595 137.685 46.0311 137.685ZM58.0719 130.37C58.4358 129.701 58.9744 129.191 59.6877 128.842C60.401 128.493 61.2671 128.318 62.2861 128.318V130.349C62.1697 130.334 62.0096 130.327 61.8058 130.327C60.6703 130.327 59.775 130.669 59.12 131.353C58.4795 132.023 58.1592 132.983 58.1592 134.235V140H56.063V128.427H58.0719V130.37ZM69.0627 128.318C70.664 128.318 71.8867 128.711 72.7311 129.497C73.5899 130.283 74.0194 131.455 74.0194 133.013V140H72.0323V138.472C71.683 139.01 71.1807 139.425 70.5257 139.716C69.8852 139.993 69.1209 140.131 68.2329 140.131C66.9373 140.131 65.8965 139.818 65.1104 139.192C64.3389 138.566 63.9531 137.744 63.9531 136.725C63.9531 135.706 64.3244 134.89 65.0668 134.279C65.8092 133.653 66.9883 133.34 68.6041 133.34H71.9231V132.925C71.9231 132.023 71.6611 131.331 71.1371 130.851C70.613 130.37 69.8415 130.13 68.8225 130.13C68.1383 130.13 67.4687 130.247 66.8136 130.48C66.1585 130.698 65.6054 130.996 65.1541 131.375L64.2807 129.803C64.8775 129.322 65.5908 128.958 66.4206 128.711C67.2503 128.449 68.131 128.318 69.0627 128.318ZM68.5823 138.515C69.3829 138.515 70.0744 138.34 70.6567 137.991C71.239 137.627 71.6611 137.118 71.9231 136.463V134.847H68.6915C66.9155 134.847 66.0275 135.444 66.0275 136.637C66.0275 137.22 66.2532 137.678 66.7044 138.013C67.1557 138.348 67.7817 138.515 68.5823 138.515ZM84.0344 128.318C85.1553 128.318 86.1597 128.565 87.0477 129.06C87.9357 129.555 88.6272 130.247 89.1221 131.135C89.6316 132.023 89.8863 133.049 89.8863 134.214C89.8863 135.378 89.6316 136.412 89.1221 137.314C88.6272 138.202 87.9357 138.894 87.0477 139.389C86.1597 139.884 85.1553 140.131 84.0344 140.131C83.2046 140.131 82.4404 139.971 81.7417 139.651C81.0575 139.33 80.4752 138.865 79.9948 138.253V144.236H77.8986V128.427H79.9075V130.261C80.3733 129.621 80.9629 129.14 81.6762 128.82C82.3894 128.485 83.1755 128.318 84.0344 128.318ZM83.8597 138.297C84.6021 138.297 85.2645 138.129 85.8468 137.795C86.4436 137.445 86.9094 136.965 87.2442 136.353C87.5936 135.728 87.7683 135.014 87.7683 134.214C87.7683 133.413 87.5936 132.707 87.2442 132.096C86.9094 131.47 86.4436 130.989 85.8468 130.654C85.2645 130.32 84.6021 130.152 83.8597 130.152C83.1319 130.152 82.4695 130.327 81.8727 130.676C81.2904 131.011 80.8246 131.484 80.4752 132.096C80.1404 132.707 79.973 133.413 79.973 134.214C79.973 135.014 80.1404 135.728 80.4752 136.353C80.81 136.965 81.2758 137.445 81.8727 137.795C82.4695 138.129 83.1319 138.297 83.8597 138.297ZM98.9621 128.318C100.432 128.318 101.597 128.747 102.456 129.606C103.329 130.451 103.766 131.695 103.766 133.34V140H101.67V133.58C101.67 132.459 101.4 131.615 100.862 131.047C100.323 130.48 99.5517 130.196 98.5472 130.196C97.4118 130.196 96.5165 130.531 95.8614 131.2C95.2064 131.855 94.8788 132.802 94.8788 134.039V140H92.7826V123.798H94.8788V130.065C95.3156 129.512 95.8833 129.082 96.582 128.776C97.2953 128.471 98.0887 128.318 98.9621 128.318ZM107.645 128.427H109.742V140H107.645V128.427ZM108.693 126.2C108.286 126.2 107.944 126.069 107.667 125.807C107.405 125.545 107.274 125.225 107.274 124.846C107.274 124.468 107.405 124.147 107.667 123.885C107.944 123.609 108.286 123.47 108.693 123.47C109.101 123.47 109.436 123.601 109.698 123.863C109.974 124.111 110.113 124.424 110.113 124.802C110.113 125.195 109.974 125.53 109.698 125.807C109.436 126.069 109.101 126.2 108.693 126.2ZM118.788 140.131C117.609 140.131 116.553 139.876 115.622 139.367C114.705 138.857 113.984 138.159 113.46 137.271C112.936 136.368 112.674 135.349 112.674 134.214C112.674 133.078 112.936 132.066 113.46 131.178C113.984 130.276 114.705 129.577 115.622 129.082C116.553 128.573 117.609 128.318 118.788 128.318C119.836 128.318 120.768 128.529 121.583 128.951C122.413 129.373 123.053 129.985 123.504 130.785L121.91 131.812C121.547 131.258 121.095 130.844 120.557 130.567C120.018 130.29 119.421 130.152 118.766 130.152C118.009 130.152 117.325 130.32 116.714 130.654C116.117 130.989 115.644 131.47 115.294 132.096C114.959 132.707 114.792 133.413 114.792 134.214C114.792 135.029 114.959 135.749 115.294 136.375C115.644 136.987 116.117 137.46 116.714 137.795C117.325 138.129 118.009 138.297 118.766 138.297C119.421 138.297 120.018 138.159 120.557 137.882C121.095 137.605 121.547 137.19 121.91 136.637L123.504 137.642C123.053 138.442 122.413 139.061 121.583 139.498C120.768 139.92 119.836 140.131 118.788 140.131ZM132.082 123.798H134.179V140H132.082V123.798ZM142.395 128.318C143.997 128.318 145.219 128.711 146.064 129.497C146.923 130.283 147.352 131.455 147.352 133.013V140H145.365V138.472C145.016 139.01 144.513 139.425 143.858 139.716C143.218 139.993 142.454 140.131 141.566 140.131C140.27 140.131 139.229 139.818 138.443 139.192C137.672 138.566 137.286 137.744 137.286 136.725C137.286 135.706 137.657 134.89 138.399 134.279C139.142 133.653 140.321 133.34 141.937 133.34H145.256V132.925C145.256 132.023 144.994 131.331 144.47 130.851C143.946 130.37 143.174 130.13 142.155 130.13C141.471 130.13 140.801 130.247 140.146 130.48C139.491 130.698 138.938 130.996 138.487 131.375L137.613 129.803C138.21 129.322 138.923 128.958 139.753 128.711C140.583 128.449 141.464 128.318 142.395 128.318ZM141.915 138.515C142.716 138.515 143.407 138.34 143.989 137.991C144.572 137.627 144.994 137.118 145.256 136.463V134.847H142.024C140.248 134.847 139.36 135.444 139.36 136.637C139.36 137.22 139.586 137.678 140.037 138.013C140.488 138.348 141.114 138.515 141.915 138.515ZM161.259 128.427L155.647 141.157C155.152 142.336 154.57 143.166 153.9 143.647C153.245 144.127 152.452 144.367 151.52 144.367C150.953 144.367 150.399 144.272 149.861 144.083C149.337 143.909 148.9 143.647 148.551 143.297L149.446 141.725C150.043 142.293 150.734 142.577 151.52 142.577C152.03 142.577 152.452 142.438 152.787 142.162C153.136 141.9 153.449 141.441 153.726 140.786L154.097 139.978L148.987 128.427H151.171L155.21 137.685L159.206 128.427H161.259ZM167.852 140.131C166.702 140.131 165.669 139.876 164.751 139.367C163.834 138.857 163.114 138.159 162.59 137.271C162.08 136.368 161.825 135.349 161.825 134.214C161.825 133.078 162.08 132.066 162.59 131.178C163.114 130.276 163.834 129.577 164.751 129.082C165.669 128.573 166.702 128.318 167.852 128.318C169.002 128.318 170.028 128.573 170.931 129.082C171.848 129.577 172.561 130.276 173.071 131.178C173.595 132.066 173.857 133.078 173.857 134.214C173.857 135.349 173.595 136.368 173.071 137.271C172.561 138.159 171.848 138.857 170.931 139.367C170.028 139.876 169.002 140.131 167.852 140.131ZM167.852 138.297C168.594 138.297 169.257 138.129 169.839 137.795C170.436 137.445 170.902 136.965 171.237 136.353C171.571 135.728 171.739 135.014 171.739 134.214C171.739 133.413 171.571 132.707 171.237 132.096C170.902 131.47 170.436 130.989 169.839 130.654C169.257 130.32 168.594 130.152 167.852 130.152C167.11 130.152 166.44 130.32 165.843 130.654C165.261 130.989 164.795 131.47 164.446 132.096C164.111 132.707 163.943 133.413 163.943 134.214C163.943 135.014 164.111 135.728 164.446 136.353C164.795 136.965 165.261 137.445 165.843 137.795C166.44 138.129 167.11 138.297 167.852 138.297ZM187.543 128.427V140H185.556V138.253C185.133 138.85 184.573 139.316 183.874 139.651C183.19 139.971 182.44 140.131 181.625 140.131C180.082 140.131 178.867 139.709 177.979 138.865C177.091 138.006 176.647 136.746 176.647 135.087V128.427H178.743V134.847C178.743 135.968 179.012 136.819 179.551 137.402C180.089 137.969 180.861 138.253 181.865 138.253C182.972 138.253 183.845 137.918 184.486 137.249C185.126 136.579 185.446 135.633 185.446 134.41V128.427H187.543ZM198.04 139.323C197.735 139.585 197.356 139.789 196.905 139.934C196.454 140.066 195.988 140.131 195.507 140.131C194.343 140.131 193.44 139.818 192.8 139.192C192.159 138.566 191.839 137.671 191.839 136.506V130.152H189.874V128.427H191.839V125.894H193.935V128.427H197.254V130.152H193.935V136.419C193.935 137.045 194.088 137.525 194.394 137.86C194.714 138.195 195.165 138.362 195.748 138.362C196.388 138.362 196.934 138.18 197.385 137.816L198.04 139.323ZM203.894 140.131C202.947 140.131 202.038 140.007 201.164 139.76C200.291 139.498 199.607 139.17 199.112 138.777L199.985 137.118C200.495 137.482 201.113 137.773 201.841 137.991C202.569 138.209 203.304 138.319 204.046 138.319C205.881 138.319 206.798 137.795 206.798 136.746C206.798 136.397 206.674 136.121 206.427 135.917C206.179 135.713 205.866 135.567 205.488 135.48C205.124 135.378 204.6 135.269 203.915 135.152C202.984 135.007 202.22 134.84 201.623 134.65C201.04 134.461 200.538 134.141 200.116 133.69C199.694 133.238 199.483 132.605 199.483 131.79C199.483 130.742 199.92 129.905 200.793 129.279C201.666 128.638 202.838 128.318 204.308 128.318C205.08 128.318 205.852 128.413 206.623 128.602C207.395 128.791 208.028 129.046 208.523 129.366L207.627 131.026C206.681 130.414 205.568 130.108 204.287 130.108C203.399 130.108 202.722 130.254 202.256 130.545C201.79 130.836 201.557 131.222 201.557 131.702C201.557 132.081 201.688 132.379 201.95 132.598C202.212 132.816 202.533 132.976 202.911 133.078C203.304 133.18 203.85 133.296 204.549 133.427C205.48 133.588 206.23 133.762 206.798 133.952C207.38 134.126 207.875 134.432 208.283 134.869C208.69 135.305 208.894 135.917 208.894 136.703C208.894 137.751 208.443 138.588 207.54 139.214C206.652 139.825 205.437 140.131 203.894 140.131ZM212.038 137.14C212.445 137.14 212.78 137.285 213.042 137.576C213.319 137.853 213.457 138.202 213.457 138.624C213.457 138.843 213.428 139.054 213.37 139.258C213.326 139.461 213.231 139.774 213.086 140.197L212.06 143.232H210.684L211.492 139.978C211.215 139.876 210.99 139.709 210.815 139.476C210.655 139.228 210.575 138.945 210.575 138.624C210.575 138.188 210.713 137.831 210.99 137.554C211.266 137.278 211.616 137.14 212.038 137.14ZM233.243 123.798V140H231.234V138.166C230.768 138.806 230.178 139.294 229.465 139.629C228.752 139.964 227.966 140.131 227.107 140.131C225.986 140.131 224.982 139.884 224.094 139.389C223.206 138.894 222.507 138.202 221.997 137.314C221.502 136.412 221.255 135.378 221.255 134.214C221.255 133.049 221.502 132.023 221.997 131.135C222.507 130.247 223.206 129.555 224.094 129.06C224.982 128.565 225.986 128.318 227.107 128.318C227.937 128.318 228.701 128.478 229.4 128.798C230.098 129.104 230.681 129.563 231.146 130.174V123.798H233.243ZM227.282 138.297C228.009 138.297 228.672 138.129 229.269 137.795C229.865 137.445 230.331 136.965 230.666 136.353C231.001 135.728 231.168 135.014 231.168 134.214C231.168 133.413 231.001 132.707 230.666 132.096C230.331 131.47 229.865 130.989 229.269 130.654C228.672 130.32 228.009 130.152 227.282 130.152C226.539 130.152 225.87 130.32 225.273 130.654C224.69 130.989 224.225 131.47 223.875 132.096C223.54 132.707 223.373 133.413 223.373 134.214C223.373 135.014 223.54 135.728 223.875 136.353C224.225 136.965 224.69 137.445 225.273 137.795C225.87 138.129 226.539 138.297 227.282 138.297ZM247.668 134.279C247.668 134.439 247.654 134.65 247.625 134.912H238.235C238.366 135.931 238.81 136.754 239.567 137.38C240.339 137.991 241.292 138.297 242.428 138.297C243.811 138.297 244.924 137.831 245.768 136.899L246.926 138.253C246.402 138.865 245.747 139.33 244.961 139.651C244.189 139.971 243.323 140.131 242.362 140.131C241.139 140.131 240.055 139.884 239.109 139.389C238.162 138.879 237.427 138.173 236.903 137.271C236.394 136.368 236.139 135.349 236.139 134.214C236.139 133.093 236.386 132.081 236.881 131.178C237.391 130.276 238.082 129.577 238.956 129.082C239.844 128.573 240.841 128.318 241.947 128.318C243.054 128.318 244.036 128.573 244.895 129.082C245.768 129.577 246.445 130.276 246.926 131.178C247.421 132.081 247.668 133.115 247.668 134.279ZM241.947 130.087C240.943 130.087 240.099 130.392 239.414 131.004C238.745 131.615 238.352 132.416 238.235 133.406H245.659C245.543 132.43 245.143 131.637 244.458 131.026C243.789 130.4 242.952 130.087 241.947 130.087ZM253.898 140.131C252.952 140.131 252.042 140.007 251.169 139.76C250.295 139.498 249.611 139.17 249.116 138.777L249.989 137.118C250.499 137.482 251.118 137.773 251.845 137.991C252.573 138.209 253.308 138.319 254.051 138.319C255.885 138.319 256.802 137.795 256.802 136.746C256.802 136.397 256.678 136.121 256.431 135.917C256.183 135.713 255.87 135.567 255.492 135.48C255.128 135.378 254.604 135.269 253.92 135.152C252.988 135.007 252.224 134.84 251.627 134.65C251.045 134.461 250.543 134.141 250.12 133.69C249.698 133.238 249.487 132.605 249.487 131.79C249.487 130.742 249.924 129.905 250.797 129.279C251.671 128.638 252.843 128.318 254.313 128.318C255.084 128.318 255.856 128.413 256.627 128.602C257.399 128.791 258.032 129.046 258.527 129.366L257.632 131.026C256.686 130.414 255.572 130.108 254.291 130.108C253.403 130.108 252.726 130.254 252.26 130.545C251.794 130.836 251.562 131.222 251.562 131.702C251.562 132.081 251.693 132.379 251.955 132.598C252.217 132.816 252.537 132.976 252.915 133.078C253.308 133.18 253.854 133.296 254.553 133.427C255.485 133.588 256.234 133.762 256.802 133.952C257.384 134.126 257.879 134.432 258.287 134.869C258.695 135.305 258.898 135.917 258.898 136.703C258.898 137.751 258.447 138.588 257.545 139.214C256.657 139.825 255.441 140.131 253.898 140.131ZM261.518 128.427H263.614V140H261.518V128.427ZM262.566 126.2C262.159 126.2 261.817 126.069 261.54 125.807C261.278 125.545 261.147 125.225 261.147 124.846C261.147 124.468 261.278 124.147 261.54 123.885C261.817 123.609 262.159 123.47 262.566 123.47C262.974 123.47 263.309 123.601 263.571 123.863C263.847 124.111 263.986 124.424 263.986 124.802C263.986 125.195 263.847 125.53 263.571 125.807C263.309 126.069 262.974 126.2 262.566 126.2ZM278.687 128.427V138.428C278.687 140.451 278.185 141.943 277.181 142.904C276.176 143.879 274.677 144.367 272.683 144.367C271.591 144.367 270.55 144.214 269.56 143.909C268.57 143.617 267.77 143.195 267.158 142.642L268.163 141.026C268.701 141.492 269.364 141.856 270.15 142.118C270.95 142.395 271.773 142.533 272.617 142.533C273.971 142.533 274.968 142.213 275.609 141.572C276.264 140.932 276.591 139.956 276.591 138.646V137.729C276.096 138.326 275.485 138.777 274.757 139.083C274.044 139.374 273.265 139.52 272.421 139.52C271.314 139.52 270.31 139.287 269.407 138.821C268.519 138.34 267.821 137.678 267.311 136.834C266.802 135.975 266.547 135 266.547 133.908C266.547 132.816 266.802 131.848 267.311 131.004C267.821 130.145 268.519 129.483 269.407 129.017C270.31 128.551 271.314 128.318 272.421 128.318C273.294 128.318 274.102 128.478 274.844 128.798C275.601 129.119 276.22 129.592 276.7 130.218V128.427H278.687ZM272.661 137.685C273.418 137.685 274.095 137.525 274.691 137.205C275.303 136.885 275.776 136.441 276.111 135.873C276.46 135.291 276.635 134.636 276.635 133.908C276.635 132.787 276.264 131.884 275.521 131.2C274.779 130.502 273.825 130.152 272.661 130.152C271.482 130.152 270.521 130.502 269.778 131.2C269.036 131.884 268.665 132.787 268.665 133.908C268.665 134.636 268.832 135.291 269.167 135.873C269.516 136.441 269.99 136.885 270.586 137.205C271.198 137.525 271.889 137.685 272.661 137.685ZM288.872 128.318C290.342 128.318 291.507 128.747 292.366 129.606C293.239 130.451 293.676 131.695 293.676 133.34V140H291.58V133.58C291.58 132.459 291.31 131.615 290.772 131.047C290.233 130.48 289.462 130.196 288.457 130.196C287.322 130.196 286.427 130.531 285.771 131.2C285.116 131.855 284.789 132.802 284.789 134.039V140H282.693V128.427H284.702V130.174C285.124 129.577 285.691 129.119 286.405 128.798C287.133 128.478 287.955 128.318 288.872 128.318ZM300.874 140.131C299.928 140.131 299.018 140.007 298.145 139.76C297.272 139.498 296.587 139.17 296.092 138.777L296.966 137.118C297.475 137.482 298.094 137.773 298.822 137.991C299.55 138.209 300.285 138.319 301.027 138.319C302.861 138.319 303.779 137.795 303.779 136.746C303.779 136.397 303.655 136.121 303.407 135.917C303.16 135.713 302.847 135.567 302.468 135.48C302.104 135.378 301.58 135.269 300.896 135.152C299.965 135.007 299.2 134.84 298.603 134.65C298.021 134.461 297.519 134.141 297.097 133.69C296.675 133.238 296.464 132.605 296.464 131.79C296.464 130.742 296.9 129.905 297.774 129.279C298.647 128.638 299.819 128.318 301.289 128.318C302.061 128.318 302.832 128.413 303.604 128.602C304.375 128.791 305.009 129.046 305.504 129.366L304.608 131.026C303.662 130.414 302.548 130.108 301.267 130.108C300.379 130.108 299.703 130.254 299.237 130.545C298.771 130.836 298.538 131.222 298.538 131.702C298.538 132.081 298.669 132.379 298.931 132.598C299.193 132.816 299.513 132.976 299.892 133.078C300.285 133.18 300.831 133.296 301.529 133.427C302.461 133.588 303.211 133.762 303.779 133.952C304.361 134.126 304.856 134.432 305.263 134.869C305.671 135.305 305.875 135.917 305.875 136.703C305.875 137.751 305.423 138.588 304.521 139.214C303.633 139.825 302.417 140.131 300.874 140.131ZM318.573 128.318C320.174 128.318 321.397 128.711 322.241 129.497C323.1 130.283 323.53 131.455 323.53 133.013V140H321.542V138.472C321.193 139.01 320.691 139.425 320.036 139.716C319.395 139.993 318.631 140.131 317.743 140.131C316.448 140.131 315.407 139.818 314.621 139.192C313.849 138.566 313.463 137.744 313.463 136.725C313.463 135.706 313.835 134.89 314.577 134.279C315.319 133.653 316.498 133.34 318.114 133.34H321.433V132.925C321.433 132.023 321.171 131.331 320.647 130.851C320.123 130.37 319.352 130.13 318.333 130.13C317.648 130.13 316.979 130.247 316.324 130.48C315.669 130.698 315.116 130.996 314.664 131.375L313.791 129.803C314.388 129.322 315.101 128.958 315.931 128.711C316.76 128.449 317.641 128.318 318.573 128.318ZM318.092 138.515C318.893 138.515 319.585 138.34 320.167 137.991C320.749 137.627 321.171 137.118 321.433 136.463V134.847H318.202C316.426 134.847 315.538 135.444 315.538 136.637C315.538 137.22 315.763 137.678 316.215 138.013C316.666 138.348 317.292 138.515 318.092 138.515ZM333.588 128.318C335.059 128.318 336.223 128.747 337.082 129.606C337.955 130.451 338.392 131.695 338.392 133.34V140H336.296V133.58C336.296 132.459 336.027 131.615 335.488 131.047C334.949 130.48 334.178 130.196 333.173 130.196C332.038 130.196 331.143 130.531 330.488 131.2C329.833 131.855 329.505 132.802 329.505 134.039V140H327.409V128.427H329.418V130.174C329.84 129.577 330.408 129.119 331.121 128.798C331.849 128.478 332.671 128.318 333.588 128.318ZM353.253 123.798V140H351.244V138.166C350.779 138.806 350.189 139.294 349.476 139.629C348.762 139.964 347.976 140.131 347.117 140.131C345.997 140.131 344.992 139.884 344.104 139.389C343.216 138.894 342.517 138.202 342.008 137.314C341.513 136.412 341.265 135.378 341.265 134.214C341.265 133.049 341.513 132.023 342.008 131.135C342.517 130.247 343.216 129.555 344.104 129.06C344.992 128.565 345.997 128.318 347.117 128.318C347.947 128.318 348.711 128.478 349.41 128.798C350.109 129.104 350.691 129.563 351.157 130.174V123.798H353.253ZM347.292 138.297C348.02 138.297 348.682 138.129 349.279 137.795C349.876 137.445 350.342 136.965 350.677 136.353C351.011 135.728 351.179 135.014 351.179 134.214C351.179 133.413 351.011 132.707 350.677 132.096C350.342 131.47 349.876 130.989 349.279 130.654C348.682 130.32 348.02 130.152 347.292 130.152C346.55 130.152 345.88 130.32 345.283 130.654C344.701 130.989 344.235 131.47 343.886 132.096C343.551 132.707 343.384 133.413 343.384 134.214C343.384 135.014 343.551 135.728 343.886 136.353C344.235 136.965 344.701 137.445 345.283 137.795C345.88 138.129 346.55 138.297 347.292 138.297ZM40.987 150.798H43.0833V167H40.987V150.798ZM52.0423 167.131C50.8923 167.131 49.8588 166.876 48.9417 166.367C48.0246 165.857 47.304 165.159 46.78 164.271C46.2705 163.368 46.0157 162.349 46.0157 161.214C46.0157 160.078 46.2705 159.066 46.78 158.178C47.304 157.276 48.0246 156.577 48.9417 156.082C49.8588 155.573 50.8923 155.318 52.0423 155.318C53.1923 155.318 54.2186 155.573 55.1212 156.082C56.0383 156.577 56.7516 157.276 57.261 158.178C57.7851 159.066 58.0471 160.078 58.0471 161.214C58.0471 162.349 57.7851 163.368 57.261 164.271C56.7516 165.159 56.0383 165.857 55.1212 166.367C54.2186 166.876 53.1923 167.131 52.0423 167.131ZM52.0423 165.297C52.7847 165.297 53.4471 165.129 54.0294 164.795C54.6262 164.445 55.092 163.965 55.4269 163.353C55.7617 162.728 55.9291 162.014 55.9291 161.214C55.9291 160.413 55.7617 159.707 55.4269 159.096C55.092 158.47 54.6262 157.989 54.0294 157.654C53.4471 157.32 52.7847 157.152 52.0423 157.152C51.2999 157.152 50.6303 157.32 50.0335 157.654C49.4512 157.989 48.9854 158.47 48.636 159.096C48.3012 159.707 48.1338 160.413 48.1338 161.214C48.1338 162.014 48.3012 162.728 48.636 163.353C48.9854 163.965 49.4512 164.445 50.0335 164.795C50.6303 165.129 51.2999 165.297 52.0423 165.297ZM72.0168 155.427V165.428C72.0168 167.451 71.5146 168.943 70.5101 169.904C69.5057 170.879 68.0063 171.367 66.012 171.367C64.9202 171.367 63.8794 171.214 62.8895 170.909C61.8996 170.617 61.099 170.195 60.4876 169.642L61.492 168.026C62.0306 168.492 62.693 168.856 63.4791 169.118C64.2797 169.395 65.1022 169.533 65.9465 169.533C67.3003 169.533 68.2975 169.213 68.938 168.572C69.593 167.932 69.9206 166.956 69.9206 165.646V164.729C69.4256 165.326 68.8142 165.777 68.0864 166.083C67.3731 166.374 66.5943 166.52 65.75 166.52C64.6436 166.52 63.6392 166.287 62.7367 165.821C61.8487 165.34 61.1499 164.678 60.6404 163.834C60.131 162.975 59.8762 162 59.8762 160.908C59.8762 159.816 60.131 158.848 60.6404 158.004C61.1499 157.145 61.8487 156.483 62.7367 156.017C63.6392 155.551 64.6436 155.318 65.75 155.318C66.6234 155.318 67.4313 155.478 68.1737 155.798C68.9307 156.119 69.5494 156.592 70.0298 157.218V155.427H72.0168ZM65.9902 164.685C66.7471 164.685 67.424 164.525 68.0209 164.205C68.6323 163.885 69.1054 163.441 69.4402 162.873C69.7896 162.291 69.9643 161.636 69.9643 160.908C69.9643 159.787 69.593 158.884 68.8506 158.2C68.1082 157.502 67.1547 157.152 65.9902 157.152C64.811 157.152 63.8503 157.502 63.1079 158.2C62.3655 158.884 61.9943 159.787 61.9943 160.908C61.9943 161.636 62.1617 162.291 62.4965 162.873C62.8458 163.441 63.3189 163.885 63.9158 164.205C64.5272 164.525 65.2186 164.685 65.9902 164.685ZM80.9788 167.131C79.8288 167.131 78.7952 166.876 77.8781 166.367C76.961 165.857 76.2405 165.159 75.7164 164.271C75.2069 163.368 74.9522 162.349 74.9522 161.214C74.9522 160.078 75.2069 159.066 75.7164 158.178C76.2405 157.276 76.961 156.577 77.8781 156.082C78.7952 155.573 79.8288 155.318 80.9788 155.318C82.1288 155.318 83.1551 155.573 84.0576 156.082C84.9747 156.577 85.688 157.276 86.1975 158.178C86.7215 159.066 86.9836 160.078 86.9836 161.214C86.9836 162.349 86.7215 163.368 86.1975 164.271C85.688 165.159 84.9747 165.857 84.0576 166.367C83.1551 166.876 82.1288 167.131 80.9788 167.131ZM80.9788 165.297C81.7212 165.297 82.3835 165.129 82.9658 164.795C83.5627 164.445 84.0285 163.965 84.3633 163.353C84.6981 162.728 84.8655 162.014 84.8655 161.214C84.8655 160.413 84.6981 159.707 84.3633 159.096C84.0285 158.47 83.5627 157.989 82.9658 157.654C82.3835 157.32 81.7212 157.152 80.9788 157.152C80.2364 157.152 79.5667 157.32 78.9699 157.654C78.3876 157.989 77.9218 158.47 77.5724 159.096C77.2376 159.707 77.0702 160.413 77.0702 161.214C77.0702 162.014 77.2376 162.728 77.5724 163.353C77.9218 163.965 78.3876 164.445 78.9699 164.795C79.5667 165.129 80.2364 165.297 80.9788 165.297ZM93.2016 167.131C92.2554 167.131 91.3456 167.007 90.4721 166.76C89.5987 166.498 88.9145 166.17 88.4196 165.777L89.293 164.118C89.8025 164.482 90.4212 164.773 91.1491 164.991C91.8769 165.209 92.612 165.319 93.3544 165.319C95.1886 165.319 96.1057 164.795 96.1057 163.746C96.1057 163.397 95.982 163.121 95.7345 162.917C95.4871 162.713 95.1741 162.567 94.7956 162.48C94.4317 162.378 93.9076 162.269 93.2234 162.152C92.2918 162.007 91.5275 161.84 90.9307 161.65C90.3484 161.461 89.8462 161.141 89.424 160.69C89.0019 160.238 88.7908 159.605 88.7908 158.79C88.7908 157.742 89.2275 156.905 90.1009 156.279C90.9744 155.638 92.1462 155.318 93.6165 155.318C94.388 155.318 95.1595 155.413 95.931 155.602C96.7026 155.791 97.3358 156.046 97.8307 156.366L96.9355 158.026C95.9893 157.414 94.8757 157.108 93.5946 157.108C92.7067 157.108 92.0298 157.254 91.5639 157.545C91.0981 157.836 90.8652 158.222 90.8652 158.702C90.8652 159.081 90.9962 159.379 91.2582 159.598C91.5203 159.816 91.8405 159.976 92.219 160.078C92.612 160.18 93.1579 160.296 93.8567 160.427C94.7883 160.588 95.538 160.762 96.1057 160.952C96.688 161.126 97.183 161.432 97.5906 161.869C97.9982 162.305 98.202 162.917 98.202 163.703C98.202 164.751 97.7507 165.588 96.8481 166.214C95.9602 166.825 94.7446 167.131 93.2016 167.131ZM110.922 152.392C109.67 152.392 109.044 153.069 109.044 154.423V155.427H112.407V157.152H109.088V167H106.991V157.152H105.026V155.427H106.991V154.401C106.991 153.251 107.326 152.341 107.996 151.671C108.666 151.002 109.604 150.667 110.813 150.667C111.279 150.667 111.715 150.725 112.123 150.842C112.53 150.958 112.88 151.126 113.171 151.344L112.538 152.938C112.057 152.574 111.519 152.392 110.922 152.392ZM119.17 167.131C118.02 167.131 116.986 166.876 116.069 166.367C115.152 165.857 114.431 165.159 113.907 164.271C113.398 163.368 113.143 162.349 113.143 161.214C113.143 160.078 113.398 159.066 113.907 158.178C114.431 157.276 115.152 156.577 116.069 156.082C116.986 155.573 118.02 155.318 119.17 155.318C120.32 155.318 121.346 155.573 122.249 156.082C123.166 156.577 123.879 157.276 124.388 158.178C124.913 159.066 125.175 160.078 125.175 161.214C125.175 162.349 124.913 163.368 124.388 164.271C123.879 165.159 123.166 165.857 122.249 166.367C121.346 166.876 120.32 167.131 119.17 167.131ZM119.17 165.297C119.912 165.297 120.575 165.129 121.157 164.795C121.754 164.445 122.219 163.965 122.554 163.353C122.889 162.728 123.056 162.014 123.056 161.214C123.056 160.413 122.889 159.707 122.554 159.096C122.219 158.47 121.754 157.989 121.157 157.654C120.575 157.32 119.912 157.152 119.17 157.152C118.427 157.152 117.758 157.32 117.161 157.654C116.579 157.989 116.113 158.47 115.763 159.096C115.429 159.707 115.261 160.413 115.261 161.214C115.261 162.014 115.429 162.728 115.763 163.353C116.113 163.965 116.579 164.445 117.161 164.795C117.758 165.129 118.427 165.297 119.17 165.297ZM130.082 157.37C130.446 156.701 130.985 156.191 131.698 155.842C132.412 155.493 133.278 155.318 134.297 155.318V157.349C134.18 157.334 134.02 157.327 133.816 157.327C132.681 157.327 131.786 157.669 131.131 158.353C130.49 159.023 130.17 159.983 130.17 161.235V167H128.074V155.427H130.082V157.37ZM149.029 155.318C150.15 155.318 151.155 155.565 152.043 156.06C152.931 156.555 153.622 157.247 154.117 158.135C154.627 159.023 154.881 160.049 154.881 161.214C154.881 162.378 154.627 163.412 154.117 164.314C153.622 165.202 152.931 165.894 152.043 166.389C151.155 166.884 150.15 167.131 149.029 167.131C148.171 167.131 147.384 166.964 146.671 166.629C145.958 166.294 145.368 165.806 144.903 165.166V167H142.894V150.798H144.99V157.174C145.456 156.563 146.038 156.104 146.737 155.798C147.435 155.478 148.2 155.318 149.029 155.318ZM148.855 165.297C149.597 165.297 150.26 165.129 150.842 164.795C151.439 164.445 151.904 163.965 152.239 163.353C152.589 162.728 152.763 162.014 152.763 161.214C152.763 160.413 152.589 159.707 152.239 159.096C151.904 158.47 151.439 157.989 150.842 157.654C150.26 157.32 149.597 157.152 148.855 157.152C148.127 157.152 147.465 157.32 146.868 157.654C146.271 157.989 145.805 158.47 145.47 159.096C145.135 159.707 144.968 160.413 144.968 161.214C144.968 162.014 145.135 162.728 145.47 163.353C145.805 163.965 146.271 164.445 146.868 164.795C147.465 165.129 148.127 165.297 148.855 165.297ZM159.787 157.37C160.15 156.701 160.689 156.191 161.402 155.842C162.116 155.493 162.982 155.318 164.001 155.318V157.349C163.884 157.334 163.724 157.327 163.52 157.327C162.385 157.327 161.49 157.669 160.835 158.353C160.194 159.023 159.874 159.983 159.874 161.235V167H157.778V155.427H159.787V157.37ZM170.777 155.318C172.379 155.318 173.601 155.711 174.446 156.497C175.305 157.283 175.734 158.455 175.734 160.013V167H173.747V165.472C173.398 166.01 172.895 166.425 172.24 166.716C171.6 166.993 170.836 167.131 169.948 167.131C168.652 167.131 167.611 166.818 166.825 166.192C166.054 165.566 165.668 164.744 165.668 163.725C165.668 162.706 166.039 161.89 166.781 161.279C167.524 160.653 168.703 160.34 170.319 160.34H173.638V159.925C173.638 159.023 173.376 158.331 172.852 157.851C172.328 157.37 171.556 157.13 170.537 157.13C169.853 157.13 169.183 157.247 168.528 157.48C167.873 157.698 167.32 157.996 166.869 158.375L165.995 156.803C166.592 156.322 167.305 155.958 168.135 155.711C168.965 155.449 169.846 155.318 170.777 155.318ZM170.297 165.515C171.098 165.515 171.789 165.34 172.371 164.991C172.954 164.627 173.376 164.118 173.638 163.463V161.847H170.406C168.63 161.847 167.742 162.444 167.742 163.637C167.742 164.22 167.968 164.678 168.419 165.013C168.87 165.348 169.496 165.515 170.297 165.515ZM185.793 155.318C187.263 155.318 188.428 155.747 189.286 156.606C190.16 157.451 190.597 158.695 190.597 160.34V167H188.5V160.58C188.5 159.459 188.231 158.615 187.692 158.047C187.154 157.48 186.382 157.196 185.378 157.196C184.242 157.196 183.347 157.531 182.692 158.2C182.037 158.855 181.709 159.802 181.709 161.039V167H179.613V155.427H181.622V157.174C182.044 156.577 182.612 156.119 183.325 155.798C184.053 155.478 184.876 155.318 185.793 155.318ZM205.458 150.798V167H203.449V165.166C202.983 165.806 202.393 166.294 201.68 166.629C200.967 166.964 200.181 167.131 199.322 167.131C198.201 167.131 197.197 166.884 196.309 166.389C195.421 165.894 194.722 165.202 194.212 164.314C193.717 163.412 193.47 162.378 193.47 161.214C193.47 160.049 193.717 159.023 194.212 158.135C194.722 157.247 195.421 156.555 196.309 156.06C197.197 155.565 198.201 155.318 199.322 155.318C200.152 155.318 200.916 155.478 201.615 155.798C202.313 156.104 202.896 156.563 203.362 157.174V150.798H205.458ZM199.497 165.297C200.224 165.297 200.887 165.129 201.484 164.795C202.081 164.445 202.546 163.965 202.881 163.353C203.216 162.728 203.383 162.014 203.383 161.214C203.383 160.413 203.216 159.707 202.881 159.096C202.546 158.47 202.081 157.989 201.484 157.654C200.887 157.32 200.224 157.152 199.497 157.152C198.754 157.152 198.085 157.32 197.488 157.654C196.905 157.989 196.44 158.47 196.09 159.096C195.755 159.707 195.588 160.413 195.588 161.214C195.588 162.014 195.755 162.728 196.09 163.353C196.44 163.965 196.905 164.445 197.488 164.795C198.085 165.129 198.754 165.297 199.497 165.297ZM212.743 167.131C211.797 167.131 210.887 167.007 210.014 166.76C209.14 166.498 208.456 166.17 207.961 165.777L208.834 164.118C209.344 164.482 209.963 164.773 210.69 164.991C211.418 165.209 212.153 165.319 212.896 165.319C214.73 165.319 215.647 164.795 215.647 163.746C215.647 163.397 215.523 163.121 215.276 162.917C215.028 162.713 214.715 162.567 214.337 162.48C213.973 162.378 213.449 162.269 212.765 162.152C211.833 162.007 211.069 161.84 210.472 161.65C209.89 161.461 209.388 161.141 208.965 160.69C208.543 160.238 208.332 159.605 208.332 158.79C208.332 157.742 208.769 156.905 209.642 156.279C210.516 155.638 211.688 155.318 213.158 155.318C213.929 155.318 214.701 155.413 215.472 155.602C216.244 155.791 216.877 156.046 217.372 156.366L216.477 158.026C215.531 157.414 214.417 157.108 213.136 157.108C212.248 157.108 211.571 157.254 211.105 157.545C210.64 157.836 210.407 158.222 210.407 158.702C210.407 159.081 210.538 159.379 210.8 159.598C211.062 159.816 211.382 159.976 211.76 160.078C212.153 160.18 212.699 160.296 213.398 160.427C214.33 160.588 215.079 160.762 215.647 160.952C216.229 161.126 216.724 161.432 217.132 161.869C217.54 162.305 217.743 162.917 217.743 163.703C217.743 164.751 217.292 165.588 216.39 166.214C215.502 166.825 214.286 167.131 212.743 167.131Z" fill="white"/>
<defs>
<filter id="filter0_d_73_2" x="0" y="0" width="419.583" height="234.854" filterUnits="userSpaceOnUse" color-interpolation-filters="sRGB">
<feFlood flood-opacity="0" result="BackgroundImageFix"/>
<feColorMatrix in="SourceAlpha" type="matrix" values="0 0 0 0 0 0 0 0 0 0 0 0 0 0 0 0 0 0 127 0" result="hardAlpha"/>
<feOffset dy="4"/>
<feGaussianBlur stdDeviation="2"/>
<feComposite in2="hardAlpha" operator="out"/>
<feColorMatrix type="matrix" values="0 0 0 0 0 0 0 0 0 0 0 0 0 0 0 0 0 0 0.25 0"/>
<feBlend mode="normal" in2="BackgroundImageFix" result="effect1_dropShadow_73_2"/>
<feBlend mode="normal" in="SourceGraphic" in2="effect1_dropShadow_73_2" result="shape"/>
</filter>
<filter id="filter1_d_73_2" x="326.858" y="218.677" width="60.9587" height="51.323" filterUnits="userSpaceOnUse" color-interpolation-filters="sRGB">
<feFlood flood-opacity="0" result="BackgroundImageFix"/>
<feColorMatrix in="SourceAlpha" type="matrix" values="0 0 0 0 0 0 0 0 0 0 0 0 0 0 0 0 0 0 127 0" result="hardAlpha"/>
<feOffset dy="4"/>
<feGaussianBlur stdDeviation="2"/>
<feComposite in2="hardAlpha" operator="out"/>
<feColorMatrix type="matrix" values="0 0 0 0 0 0 0 0 0 0 0 0 0 0 0 0 0 0 0.25 0"/>
<feBlend mode="normal" in2="BackgroundImageFix" result="effect1_dropShadow_73_2"/>
<feBlend mode="normal" in="SourceGraphic" in2="effect1_dropShadow_73_2" result="shape"/>
</filter>
<linearGradient id="paint0_linear_73_2" x1="209.791" y1="0" x2="209.791" y2="226.854" gradientUnits="userSpaceOnUse">
<stop stop-color="#FFC19E"/>
<stop offset="1" stop-color="#FCD37D"/>
</linearGradient>
<linearGradient id="paint1_linear_73_2" x1="357.338" y1="218.677" x2="357.338" y2="262" gradientUnits="userSpaceOnUse">
<stop stop-color="#FFC19D"/>
<stop offset="1" stop-color="#FCD37D"/>
</linearGradient>
</defs>
</svg>
