<svg width="191" height="170" viewBox="0 0 191 170" fill="none" xmlns="http://www.w3.org/2000/svg">
<g filter="url(#filter0_bi_5_59)">
<rect width="185" height="105.585" rx="18.0488" fill="url(#paint0_linear_5_59)"/>
</g>
<path d="M67.6004 32.5171C71.8021 32.5171 75.4624 33.2101 78.5813 34.5963C81.7001 35.9824 84.1042 37.975 85.7936 40.574C87.4829 43.1731 88.3276 46.2053 88.3276 49.6706C88.3276 53.136 87.4829 56.1682 85.7936 58.7672C84.1042 61.3662 81.7001 63.3588 78.5813 64.745C75.4624 66.1311 71.8021 66.8242 67.6004 66.8242H61.0379V78H45.7036V32.5171H67.6004ZM66.6258 54.9986C68.705 54.9986 70.2644 54.5438 71.304 53.6341C72.3436 52.6812 72.8634 51.36 72.8634 49.6706C72.8634 47.9813 72.3436 46.6818 71.304 45.7721C70.2644 44.8191 68.705 44.3426 66.6258 44.3426H61.0379V54.9986H66.6258ZM93.3566 32.5171H108.691V78H93.3566V32.5171ZM122.245 78.6498C119.776 78.6498 117.719 77.87 116.073 76.3106C114.47 74.7079 113.669 72.672 113.669 70.2029C113.669 67.7339 114.47 65.7413 116.073 64.2252C117.719 62.6658 119.776 61.886 122.245 61.886C124.714 61.886 126.75 62.6658 128.353 64.2252C129.999 65.7413 130.822 67.7339 130.822 70.2029C130.822 72.672 129.999 74.7079 128.353 76.3106C126.75 77.87 124.714 78.6498 122.245 78.6498Z" fill="#FF9463"/>
<path d="M46.225 118.5L32.905 150H22.465L9.145 118.5H20.575L28.09 136.905L35.785 118.5H46.225ZM47.8457 125.385H58.0157V150H47.8457V125.385ZM52.9307 123.405C51.1007 123.405 49.6157 122.925 48.4757 121.965C47.3657 120.975 46.8107 119.73 46.8107 118.23C46.8107 116.73 47.3657 115.5 48.4757 114.54C49.6157 113.55 51.1007 113.055 52.9307 113.055C54.7907 113.055 56.2757 113.52 57.3857 114.45C58.4957 115.38 59.0507 116.58 59.0507 118.05C59.0507 119.61 58.4957 120.9 57.3857 121.92C56.2757 122.91 54.7907 123.405 52.9307 123.405ZM72.1534 150.45C70.0534 150.45 67.9834 150.225 65.9434 149.775C63.9034 149.325 62.2534 148.74 60.9934 148.02L63.7834 141.315C64.9234 142.005 66.2734 142.545 67.8334 142.935C69.3934 143.325 70.9084 143.52 72.3784 143.52C73.5484 143.52 74.3584 143.43 74.8084 143.25C75.2884 143.04 75.5284 142.74 75.5284 142.35C75.5284 141.96 75.2284 141.69 74.6284 141.54C74.0584 141.39 73.1134 141.24 71.7934 141.09C69.7834 140.85 68.0734 140.55 66.6634 140.19C65.2534 139.8 64.0084 139.065 62.9284 137.985C61.8784 136.905 61.3534 135.36 61.3534 133.35C61.3534 131.76 61.8334 130.335 62.7934 129.075C63.7534 127.815 65.1784 126.81 67.0684 126.06C68.9884 125.31 71.2834 124.935 73.9534 124.935C75.8134 124.935 77.6284 125.115 79.3984 125.475C81.1984 125.805 82.7284 126.3 83.9884 126.96L81.1984 133.665C79.0384 132.465 76.6684 131.865 74.0884 131.865C71.8684 131.865 70.7584 132.255 70.7584 133.035C70.7584 133.425 71.0584 133.71 71.6584 133.89C72.2584 134.04 73.2034 134.19 74.4934 134.34C76.5034 134.58 78.1984 134.895 79.5784 135.285C80.9884 135.675 82.2184 136.41 83.2684 137.49C84.3484 138.57 84.8884 140.115 84.8884 142.125C84.8884 143.655 84.4084 145.05 83.4484 146.31C82.4884 147.57 81.0484 148.575 79.1284 149.325C77.2084 150.075 74.8834 150.45 72.1534 150.45ZM114.878 125.385V150H105.203V147.66C104.303 148.59 103.253 149.295 102.053 149.775C100.853 150.225 99.5778 150.45 98.2278 150.45C95.1078 150.45 92.6028 149.505 90.7128 147.615C88.8228 145.695 87.8778 142.815 87.8778 138.975V125.385H98.0478V137.22C98.0478 138.9 98.3178 140.1 98.8578 140.82C99.3978 141.54 100.193 141.9 101.243 141.9C102.233 141.9 103.058 141.51 103.718 140.73C104.378 139.92 104.708 138.66 104.708 136.95V125.385H114.878ZM130.414 124.935C134.734 124.935 138.034 125.91 140.314 127.86C142.594 129.78 143.734 132.75 143.734 136.77V150H134.284V146.76C133.114 149.22 130.789 150.45 127.309 150.45C125.359 150.45 123.694 150.12 122.314 149.46C120.964 148.77 119.929 147.855 119.209 146.715C118.519 145.545 118.174 144.24 118.174 142.8C118.174 140.37 119.104 138.525 120.964 137.265C122.824 136.005 125.644 135.375 129.424 135.375H133.519C133.189 133.455 131.644 132.495 128.884 132.495C127.774 132.495 126.649 132.675 125.509 133.035C124.369 133.365 123.394 133.83 122.584 134.43L119.344 127.725C120.754 126.855 122.449 126.18 124.429 125.7C126.439 125.19 128.434 124.935 130.414 124.935ZM130.369 144.33C131.089 144.33 131.734 144.135 132.304 143.745C132.874 143.355 133.294 142.77 133.564 141.99V140.28H131.044C128.974 140.28 127.939 140.97 127.939 142.35C127.939 142.92 128.149 143.4 128.569 143.79C129.019 144.15 129.619 144.33 130.369 144.33ZM148.129 116.61H158.299V150H148.129V116.61ZM172.437 150.45C170.337 150.45 168.267 150.225 166.227 149.775C164.187 149.325 162.537 148.74 161.277 148.02L164.067 141.315C165.207 142.005 166.557 142.545 168.117 142.935C169.677 143.325 171.192 143.52 172.662 143.52C173.832 143.52 174.642 143.43 175.092 143.25C175.572 143.04 175.812 142.74 175.812 142.35C175.812 141.96 175.512 141.69 174.912 141.54C174.342 141.39 173.397 141.24 172.077 141.09C170.067 140.85 168.357 140.55 166.947 140.19C165.537 139.8 164.292 139.065 163.212 137.985C162.162 136.905 161.637 135.36 161.637 133.35C161.637 131.76 162.117 130.335 163.077 129.075C164.037 127.815 165.462 126.81 167.352 126.06C169.272 125.31 171.567 124.935 174.237 124.935C176.097 124.935 177.912 125.115 179.682 125.475C181.482 125.805 183.012 126.3 184.272 126.96L181.482 133.665C179.322 132.465 176.952 131.865 174.372 131.865C172.152 131.865 171.042 132.255 171.042 133.035C171.042 133.425 171.342 133.71 171.942 133.89C172.542 134.04 173.487 134.19 174.777 134.34C176.787 134.58 178.482 134.895 179.862 135.285C181.272 135.675 182.502 136.41 183.552 137.49C184.632 138.57 185.172 140.115 185.172 142.125C185.172 143.655 184.692 145.05 183.732 146.31C182.772 147.57 181.332 148.575 179.412 149.325C177.492 150.075 175.167 150.45 172.437 150.45Z" fill="url(#paint1_linear_5_59)"/>
<defs>
<filter id="filter0_bi_5_59" x="-9.11509" y="-9.11509" width="203.23" height="123.816" filterUnits="userSpaceOnUse" color-interpolation-filters="sRGB">
<feFlood flood-opacity="0" result="BackgroundImageFix"/>
<feGaussianBlur in="BackgroundImage" stdDeviation="4.55754"/>
<feComposite in2="SourceAlpha" operator="in" result="effect1_backgroundBlur_5_59"/>
<feBlend mode="normal" in="SourceGraphic" in2="effect1_backgroundBlur_5_59" result="shape"/>
<feColorMatrix in="SourceAlpha" type="matrix" values="0 0 0 0 0 0 0 0 0 0 0 0 0 0 0 0 0 0 127 0" result="hardAlpha"/>
<feOffset dy="2.43069"/>
<feGaussianBlur stdDeviation="1.21535"/>
<feComposite in2="hardAlpha" operator="arithmetic" k2="-1" k3="1"/>
<feColorMatrix type="matrix" values="0 0 0 0 1 0 0 0 0 1 0 0 0 0 1 0 0 0 0.25 0"/>
<feBlend mode="normal" in2="shape" result="effect2_innerShadow_5_59"/>
</filter>
<linearGradient id="paint0_linear_5_59" x1="92.5" y1="0" x2="92.5" y2="105.585" gradientUnits="userSpaceOnUse">
<stop stop-color="white" stop-opacity="0.7"/>
<stop offset="1" stop-color="white" stop-opacity="0.22"/>
</linearGradient>
<linearGradient id="paint1_linear_5_59" x1="100.244" y1="106" x2="100.244" y2="169.171" gradientUnits="userSpaceOnUse">
<stop stop-color="white" stop-opacity="0.29"/>
<stop offset="1" stop-color="white"/>
</linearGradient>
</defs>
</svg>
